<svg xmlns="http://www.w3.org/2000/svg" xmlns:xlink="http://www.w3.org/1999/xlink" width="500" zoomAndPan="magnify" viewBox="0 0 375 374.999991" height="500" preserveAspectRatio="xMidYMid meet" version="1.0"><defs><clipPath id="d0c98bb067"><path d="M 37.5 216 L 121 216 L 121 305 L 37.5 305 Z M 37.5 216 " clip-rule="nonzero"/></clipPath><clipPath id="2bdc1226ef"><path d="M 37.5 276 L 52 276 L 52 297 L 37.5 297 Z M 37.5 276 " clip-rule="nonzero"/></clipPath><clipPath id="6c2283dd18"><path d="M 213 282 L 261 282 L 261 329.460938 L 213 329.460938 Z M 213 282 " clip-rule="nonzero"/></clipPath><clipPath id="824acd89b3"><path d="M 58 282 L 106 282 L 106 329.460938 L 58 329.460938 Z M 58 282 " clip-rule="nonzero"/></clipPath><clipPath id="679380a6a8"><path d="M 233 136 L 322.5 136 L 322.5 226 L 233 226 Z M 233 136 " clip-rule="nonzero"/></clipPath><clipPath id="276091d7c1"><path d="M 58 45.210938 L 61 45.210938 L 61 58 L 58 58 Z M 58 45.210938 " clip-rule="nonzero"/></clipPath></defs><path fill="#102770" d="M 249.148438 122.257812 C 248.578125 122.257812 248.097656 121.824219 248.050781 121.25 C 247.945312 120.03125 247.757812 119.257812 247.757812 119.25 C 247.609375 118.660156 247.96875 118.0625 248.5625 117.917969 C 249.15625 117.769531 249.75 118.128906 249.894531 118.71875 C 249.90625 118.753906 250.128906 119.652344 250.246094 121.066406 C 250.296875 121.671875 249.847656 122.203125 249.238281 122.253906 C 249.207031 122.257812 249.175781 122.257812 249.148438 122.257812 Z M 249.148438 122.257812 " fill-opacity="1" fill-rule="nonzero"/><path fill="#102770" d="M 115.621094 145.980469 C 114.9375 145.980469 114.277344 145.964844 113.644531 145.933594 C 113.035156 145.902344 112.566406 145.386719 112.597656 144.777344 C 112.628906 144.171875 113.148438 143.691406 113.753906 143.734375 C 115.054688 143.796875 116.472656 143.796875 118.011719 143.710938 C 118.632812 143.671875 119.140625 144.144531 119.171875 144.75 C 119.207031 145.355469 118.742188 145.875 118.132812 145.910156 C 117.257812 145.957031 116.421875 145.980469 115.621094 145.980469 Z M 122.425781 145.484375 C 121.882812 145.484375 121.410156 145.085938 121.335938 144.535156 C 121.25 143.929688 121.671875 143.375 122.277344 143.292969 C 123.613281 143.105469 125.027344 142.867188 126.515625 142.558594 C 127.117188 142.4375 127.695312 142.820312 127.816406 143.417969 C 127.941406 144.011719 127.554688 144.59375 126.960938 144.71875 C 125.421875 145.035156 123.960938 145.285156 122.578125 145.472656 C 122.527344 145.480469 122.476562 145.484375 122.425781 145.484375 Z M 109.355469 145.429688 C 109.289062 145.429688 109.21875 145.421875 109.148438 145.410156 C 107.570312 145.109375 106.089844 144.683594 104.746094 144.144531 C 104.179688 143.921875 103.90625 143.28125 104.132812 142.714844 C 104.359375 142.148438 105 141.875 105.566406 142.101562 C 106.777344 142.585938 108.121094 142.972656 109.5625 143.246094 C 110.160156 143.359375 110.554688 143.9375 110.4375 144.535156 C 110.335938 145.0625 109.875 145.429688 109.355469 145.429688 Z M 130.992188 143.742188 C 130.503906 143.742188 130.058594 143.414062 129.925781 142.917969 C 129.773438 142.332031 130.125 141.730469 130.714844 141.574219 C 132.046875 141.226562 133.433594 140.828125 134.875 140.378906 C 135.457031 140.199219 136.074219 140.527344 136.253906 141.105469 C 136.433594 141.6875 136.109375 142.304688 135.527344 142.484375 C 134.054688 142.941406 132.636719 143.347656 131.273438 143.703125 C 131.179688 143.730469 131.085938 143.742188 130.992188 143.742188 Z M 225.566406 141.519531 C 224.960938 141.519531 224.46875 141.035156 224.460938 140.429688 C 224.457031 139.820312 224.945312 139.324219 225.554688 139.320312 C 227.042969 139.304688 228.480469 139.234375 229.828125 139.101562 C 230.445312 139.050781 230.972656 139.488281 231.03125 140.09375 C 231.089844 140.699219 230.644531 141.238281 230.039062 141.296875 C 228.628906 141.429688 227.128906 141.507812 225.574219 141.519531 C 225.570312 141.519531 225.570312 141.519531 225.566406 141.519531 Z M 221.195312 141.40625 C 221.171875 141.40625 221.148438 141.40625 221.125 141.40625 C 219.675781 141.3125 218.179688 141.164062 216.6875 140.957031 C 216.085938 140.875 215.664062 140.320312 215.746094 139.714844 C 215.828125 139.113281 216.378906 138.691406 216.988281 138.777344 C 218.429688 138.972656 219.867188 139.121094 221.261719 139.207031 C 221.871094 139.246094 222.332031 139.765625 222.292969 140.375 C 222.257812 140.957031 221.769531 141.40625 221.195312 141.40625 Z M 139.351562 141.15625 C 138.898438 141.15625 138.472656 140.871094 138.3125 140.421875 C 138.109375 139.847656 138.410156 139.21875 138.984375 139.015625 C 139.609375 138.792969 140.242188 138.5625 140.886719 138.324219 C 141.628906 138.050781 142.371094 137.785156 143.117188 137.535156 C 143.695312 137.339844 144.320312 137.648438 144.515625 138.226562 C 144.710938 138.800781 144.402344 139.425781 143.824219 139.621094 C 143.097656 139.867188 142.375 140.121094 141.652344 140.390625 C 141 140.632812 140.355469 140.867188 139.71875 141.089844 C 139.597656 141.132812 139.476562 141.15625 139.351562 141.15625 Z M 234.25 140.640625 C 233.742188 140.640625 233.285156 140.289062 233.175781 139.773438 C 233.046875 139.179688 233.425781 138.59375 234.019531 138.464844 C 235.460938 138.152344 236.8125 137.753906 238.039062 137.273438 C 238.605469 137.050781 239.246094 137.332031 239.464844 137.898438 C 239.6875 138.464844 239.410156 139.105469 238.839844 139.324219 C 237.503906 139.847656 236.039062 140.28125 234.484375 140.617188 C 234.40625 140.632812 234.328125 140.640625 234.25 140.640625 Z M 212.527344 140.230469 C 212.453125 140.230469 212.378906 140.222656 212.304688 140.210938 C 210.898438 139.921875 209.5 139.597656 208.109375 139.238281 L 208.261719 138.140625 L 208.542969 137.074219 C 210.011719 137.453125 211.375 137.773438 212.746094 138.050781 C 213.34375 138.171875 213.726562 138.753906 213.605469 139.351562 C 213.5 139.871094 213.039062 140.230469 212.527344 140.230469 Z M 147.652344 138.394531 C 147.171875 138.394531 146.726562 138.074219 146.59375 137.585938 C 146.429688 137 146.769531 136.394531 147.359375 136.230469 C 148.789062 135.832031 150.222656 135.472656 151.65625 135.152344 C 152.25 135.019531 152.839844 135.390625 152.972656 135.984375 C 153.109375 136.578125 152.734375 137.167969 152.140625 137.300781 C 150.742188 137.613281 149.34375 137.964844 147.949219 138.351562 C 147.851562 138.378906 147.75 138.394531 147.652344 138.394531 Z M 204.007812 138.226562 C 203.929688 138.226562 203.847656 138.21875 203.769531 138.199219 C 202.472656 137.914062 201.050781 137.621094 199.515625 137.332031 C 198.917969 137.21875 198.523438 136.640625 198.636719 136.042969 C 198.75 135.445312 199.324219 135.054688 199.921875 135.164062 C 201.480469 135.460938 202.925781 135.757812 204.246094 136.046875 C 204.839844 136.179688 205.214844 136.765625 205.082031 137.363281 C 204.96875 137.875 204.515625 138.226562 204.007812 138.226562 Z M 242.316406 137.402344 C 241.960938 137.402344 241.613281 137.230469 241.402344 136.914062 C 241.0625 136.410156 241.195312 135.726562 241.703125 135.386719 C 242.863281 134.609375 243.882812 133.703125 244.734375 132.703125 C 245.125 132.238281 245.820312 132.179688 246.285156 132.570312 C 246.753906 132.964844 246.808594 133.660156 246.417969 134.125 C 245.4375 135.28125 244.261719 136.324219 242.933594 137.214844 C 242.742188 137.34375 242.527344 137.402344 242.316406 137.402344 Z M 195.402344 136.605469 C 195.347656 136.605469 195.289062 136.601562 195.230469 136.59375 C 193.859375 136.378906 192.421875 136.171875 190.929688 135.984375 C 190.328125 135.910156 189.898438 135.359375 189.972656 134.753906 C 190.050781 134.152344 190.582031 133.722656 191.207031 133.800781 C 192.722656 133.992188 194.179688 134.199219 195.574219 134.417969 C 196.175781 134.511719 196.585938 135.074219 196.492188 135.675781 C 196.40625 136.21875 195.9375 136.605469 195.402344 136.605469 Z M 156.1875 136.472656 C 155.664062 136.472656 155.199219 136.09375 155.105469 135.558594 C 155 134.960938 155.398438 134.390625 156 134.285156 C 157.460938 134.027344 158.921875 133.808594 160.375 133.621094 C 160.976562 133.539062 161.53125 133.972656 161.609375 134.574219 C 161.6875 135.175781 161.261719 135.730469 160.65625 135.808594 C 159.238281 135.988281 157.808594 136.203125 156.382812 136.453125 C 156.316406 136.464844 156.25 136.472656 156.1875 136.472656 Z M 186.71875 135.519531 C 186.683594 135.519531 186.652344 135.515625 186.613281 135.511719 C 185.207031 135.382812 183.765625 135.269531 182.289062 135.179688 C 181.679688 135.140625 181.214844 134.621094 181.253906 134.011719 C 181.289062 133.40625 181.839844 132.949219 182.421875 132.980469 C 183.921875 133.070312 185.390625 133.1875 186.820312 133.320312 C 187.429688 133.378906 187.871094 133.914062 187.816406 134.519531 C 187.761719 135.089844 187.28125 135.519531 186.71875 135.519531 Z M 164.863281 135.351562 C 164.296875 135.351562 163.816406 134.917969 163.765625 134.34375 C 163.714844 133.738281 164.164062 133.203125 164.769531 133.152344 C 166.253906 133.023438 167.722656 132.929688 169.179688 132.863281 C 169.773438 132.847656 170.304688 133.304688 170.332031 133.910156 C 170.363281 134.519531 169.890625 135.035156 169.28125 135.0625 C 167.855469 135.128906 166.414062 135.222656 164.960938 135.347656 C 164.925781 135.347656 164.894531 135.351562 164.863281 135.351562 Z M 177.980469 134.984375 C 177.972656 134.984375 177.960938 134.984375 177.949219 134.984375 C 176.851562 134.957031 175.753906 134.941406 174.617188 134.941406 L 173.613281 134.945312 C 172.972656 134.96875 172.507812 134.460938 172.5 133.851562 C 172.496094 133.242188 172.988281 132.746094 173.597656 132.742188 L 174.617188 132.738281 C 175.746094 132.730469 176.894531 132.753906 178.011719 132.785156 C 178.621094 132.800781 179.101562 133.308594 179.082031 133.914062 C 179.066406 134.511719 178.578125 134.984375 177.980469 134.984375 Z M 247.863281 130.8125 C 247.71875 130.8125 247.570312 130.78125 247.429688 130.722656 C 246.871094 130.480469 246.609375 129.832031 246.851562 129.273438 C 247.371094 128.0625 247.738281 126.746094 247.933594 125.351562 C 248.019531 124.75 248.578125 124.332031 249.183594 124.417969 C 249.785156 124.503906 250.203125 125.0625 250.121094 125.664062 C 249.894531 127.246094 249.476562 128.753906 248.878906 130.144531 C 248.699219 130.5625 248.292969 130.8125 247.863281 130.8125 Z M 247.863281 130.8125 " fill-opacity="1" fill-rule="nonzero"/><path fill="#102770" d="M 101.261719 142.019531 C 101.023438 142.019531 100.777344 141.941406 100.574219 141.777344 C 99.371094 140.816406 98.855469 140.050781 98.800781 139.964844 C 98.464844 139.457031 98.609375 138.773438 99.121094 138.441406 C 99.628906 138.109375 100.3125 138.253906 100.644531 138.761719 C 100.648438 138.761719 101.035156 139.324219 101.953125 140.058594 C 102.429688 140.4375 102.507812 141.132812 102.125 141.605469 C 101.90625 141.878906 101.585938 142.019531 101.261719 142.019531 Z M 101.261719 142.019531 " fill-opacity="1" fill-rule="nonzero"/><path fill="#f8c471" d="M 270.789062 175.042969 L 270.789062 279.808594 L 119.3125 279.808594 L 119.3125 175.042969 C 119.3125 168.015625 125.003906 162.332031 132.039062 162.332031 L 258.039062 162.332031 C 265.078125 162.332031 270.789062 168.015625 270.789062 175.042969 Z M 270.789062 175.042969 " fill-opacity="1" fill-rule="nonzero"/><path fill="#fe5722" d="M 119.300781 217.933594 L 119.300781 303.644531 L 44.664062 303.644531 C 41.347656 303.644531 38.644531 300.96875 38.644531 297.632812 L 38.644531 272.902344 C 38.644531 266.363281 40.261719 259.925781 43.308594 254.15625 L 62.480469 217.933594 Z M 119.300781 217.933594 " fill-opacity="1" fill-rule="nonzero"/><path fill="#ffffff" d="M 119.3125 217.9375 L 119.3125 222.054688 L 66.371094 222.054688 C 63.980469 222.054688 61.789062 223.375 60.675781 225.484375 L 43.320312 258.292969 C 40.253906 264.0625 38.644531 270.496094 38.644531 277.039062 L 38.644531 272.898438 C 38.644531 266.355469 40.253906 259.921875 43.320312 254.152344 L 62.488281 217.9375 Z M 119.3125 217.9375 " fill-opacity="0.2" fill-rule="nonzero"/><path fill="#d1432f" d="M 119.3125 298.140625 L 119.3125 303.648438 L 44.664062 303.648438 C 41.355469 303.648438 38.644531 300.960938 38.644531 297.632812 L 38.644531 292.125 C 38.644531 295.453125 41.355469 298.140625 44.664062 298.140625 Z M 119.3125 298.140625 " fill-opacity="1" fill-rule="nonzero"/><path fill="#ffffff" d="M 108.695312 255.101562 L 108.695312 231.074219 C 108.695312 229.667969 107.550781 228.527344 106.140625 228.527344 L 70.410156 228.527344 C 69.464844 228.527344 68.59375 229.046875 68.152344 229.882812 L 55.4375 253.910156 C 54.539062 255.605469 55.773438 257.652344 57.695312 257.652344 L 106.140625 257.652344 C 107.550781 257.652344 108.695312 256.507812 108.695312 255.101562 Z M 108.695312 255.101562 " fill-opacity="1" fill-rule="nonzero"/><path fill="#e6e7e8" d="M 108.703125 250.140625 L 108.703125 255.097656 C 108.703125 256.507812 107.554688 257.652344 106.144531 257.652344 L 57.703125 257.652344 C 55.78125 257.652344 54.546875 255.605469 55.429688 253.910156 L 56.289062 252.257812 C 56.6875 252.542969 57.171875 252.695312 57.703125 252.695312 L 106.144531 252.695312 C 107.554688 252.695312 108.703125 251.550781 108.703125 250.140625 Z M 108.703125 250.140625 " fill-opacity="1" fill-rule="nonzero"/><path fill="#2ecc71" d="M 119.300781 187.273438 L 119.300781 217.933594 L 62.480469 217.933594 C 67.171875 199.878906 83.507812 187.273438 102.199219 187.273438 Z M 119.300781 187.273438 " fill-opacity="1" fill-rule="nonzero"/><path fill="#ffffff" d="M 119.3125 187.273438 L 119.3125 189.742188 L 102.195312 189.742188 C 84.371094 189.742188 68.6875 201.21875 63.214844 217.9375 L 62.488281 217.9375 C 67.164062 199.875 83.511719 187.273438 102.195312 187.273438 Z M 119.3125 187.273438 " fill-opacity="0.2" fill-rule="nonzero"/><path fill="#259a71" d="M 119.3125 213.246094 L 119.3125 217.9375 L 62.488281 217.9375 C 62.90625 216.328125 63.414062 214.765625 64.011719 213.246094 Z M 119.3125 213.246094 " fill-opacity="1" fill-rule="nonzero"/><path fill="#fe5722" d="M 276.71875 282.964844 L 276.71875 300.519531 C 276.71875 302.238281 275.3125 303.644531 273.589844 303.644531 L 119.300781 303.644531 L 119.300781 279.8125 L 273.589844 279.8125 C 275.3125 279.8125 276.71875 281.242188 276.71875 282.964844 Z M 276.71875 282.964844 " fill-opacity="1" fill-rule="nonzero"/><path fill="#ffffff" d="M 276.722656 282.964844 L 276.722656 285.652344 C 276.722656 283.933594 275.3125 282.5 273.589844 282.5 L 119.3125 282.5 L 119.3125 279.8125 L 273.589844 279.8125 C 275.3125 279.8125 276.722656 281.246094 276.722656 282.964844 Z M 276.722656 282.964844 " fill-opacity="0.2" fill-rule="nonzero"/><path fill="#d1432f" d="M 276.722656 295.011719 L 276.722656 300.519531 C 276.722656 302.238281 275.3125 303.648438 273.589844 303.648438 L 119.3125 303.648438 L 119.3125 298.140625 L 273.589844 298.140625 C 275.3125 298.140625 276.722656 296.730469 276.722656 295.011719 Z M 276.722656 295.011719 " fill-opacity="1" fill-rule="nonzero"/><path fill="#ffffff" d="M 270.789062 175.046875 L 270.789062 178.75 C 270.789062 171.722656 265.078125 166.039062 258.039062 166.039062 L 132.039062 166.039062 C 125.003906 166.039062 119.3125 171.722656 119.3125 178.75 L 119.3125 175.046875 C 119.3125 168.023438 125.003906 162.339844 132.039062 162.339844 L 258.039062 162.339844 C 265.078125 162.339844 270.789062 168.023438 270.789062 175.046875 Z M 270.789062 175.046875 " fill-opacity="0.2" fill-rule="nonzero"/><path fill="#dca26a" d="M 119.3125 272.566406 L 270.789062 272.566406 L 270.789062 279.808594 L 119.3125 279.808594 Z M 119.3125 272.566406 " fill-opacity="1" fill-rule="nonzero"/><path fill="#ffca28" d="M 50.152344 281.03125 L 50.152344 292.46875 C 50.152344 294.296875 48.640625 295.804688 46.8125 295.804688 L 38.644531 295.804688 L 38.644531 277.695312 L 46.8125 277.695312 C 48.640625 277.695312 50.152344 279.175781 50.152344 281.03125 Z M 50.152344 281.03125 " fill-opacity="1" fill-rule="nonzero"/><path fill="#ffffff" d="M 38.644531 277.691406 L 40.992188 277.691406 L 40.992188 295.804688 L 38.644531 295.804688 Z M 38.644531 277.691406 " fill-opacity="0.2" fill-rule="nonzero"/><path fill="#ffa726" d="M 50.15625 281.023438 L 50.15625 292.480469 C 50.15625 294.285156 48.636719 295.804688 46.804688 295.804688 L 43.164062 295.804688 C 44.996094 295.804688 46.496094 294.285156 46.496094 292.480469 L 46.496094 281.023438 C 46.496094 279.175781 44.996094 277.699219 43.164062 277.699219 L 46.804688 277.699219 C 48.636719 277.699219 50.15625 279.175781 50.15625 281.023438 Z M 50.15625 281.023438 " fill-opacity="1" fill-rule="nonzero"/><g clip-path="url(#d0c98bb067)"><path fill="#102770" d="M 119.300781 304.742188 L 44.664062 304.742188 C 40.734375 304.742188 37.542969 301.554688 37.542969 297.632812 L 37.542969 272.902344 C 37.542969 266.238281 39.199219 259.578125 42.335938 253.640625 L 61.503906 217.421875 C 61.695312 217.058594 62.070312 216.832031 62.480469 216.832031 L 119.300781 216.832031 C 119.910156 216.832031 120.402344 217.328125 120.402344 217.933594 L 120.402344 303.640625 C 120.402344 304.25 119.910156 304.742188 119.300781 304.742188 Z M 63.144531 219.035156 L 44.285156 254.671875 C 41.316406 260.289062 39.746094 266.59375 39.746094 272.902344 L 39.746094 297.632812 C 39.746094 300.339844 41.953125 302.542969 44.664062 302.542969 L 118.199219 302.542969 L 118.199219 219.035156 Z M 63.144531 219.035156 " fill-opacity="1" fill-rule="nonzero"/></g><path fill="#102770" d="M 106.140625 258.753906 L 57.695312 258.753906 C 56.402344 258.753906 55.230469 258.09375 54.5625 256.984375 C 53.894531 255.878906 53.859375 254.535156 54.460938 253.394531 L 67.175781 229.371094 C 67.8125 228.167969 69.050781 227.425781 70.410156 227.425781 L 106.140625 227.425781 C 108.160156 227.425781 109.800781 229.0625 109.800781 231.074219 L 109.800781 255.101562 C 109.800781 257.113281 108.160156 258.753906 106.140625 258.753906 Z M 70.410156 229.625 C 69.871094 229.625 69.378906 229.921875 69.125 230.398438 L 56.410156 254.421875 C 56.167969 254.882812 56.183594 255.402344 56.453125 255.847656 C 56.722656 256.292969 57.175781 256.550781 57.695312 256.550781 L 106.140625 256.550781 C 106.941406 256.550781 107.59375 255.898438 107.59375 255.101562 L 107.59375 231.074219 C 107.59375 230.277344 106.941406 229.625 106.140625 229.625 Z M 70.410156 229.625 " fill-opacity="1" fill-rule="nonzero"/><path fill="#102770" d="M 119.300781 219.035156 L 62.480469 219.035156 C 62.140625 219.035156 61.816406 218.878906 61.609375 218.609375 C 61.398438 218.339844 61.328125 217.988281 61.414062 217.65625 C 66.230469 199.121094 83.003906 186.171875 102.199219 186.171875 L 119.300781 186.171875 C 119.910156 186.171875 120.402344 186.664062 120.402344 187.273438 L 120.402344 217.933594 C 120.402344 218.542969 119.910156 219.035156 119.300781 219.035156 Z M 63.933594 216.832031 L 118.199219 216.832031 L 118.199219 188.375 L 102.199219 188.375 C 84.488281 188.375 68.953125 200.003906 63.933594 216.832031 Z M 63.933594 216.832031 " fill-opacity="1" fill-rule="nonzero"/><path fill="#102770" d="M 273.589844 304.742188 L 119.300781 304.742188 C 118.691406 304.742188 118.199219 304.25 118.199219 303.640625 L 118.199219 279.8125 C 118.199219 279.203125 118.691406 278.710938 119.300781 278.710938 L 273.589844 278.710938 C 275.921875 278.710938 277.820312 280.621094 277.820312 282.964844 L 277.820312 300.519531 C 277.820312 302.847656 275.921875 304.742188 273.589844 304.742188 Z M 120.402344 302.542969 L 273.589844 302.542969 C 274.707031 302.542969 275.617188 301.632812 275.617188 300.519531 L 275.617188 282.964844 C 275.617188 281.851562 274.6875 280.914062 273.589844 280.914062 L 120.402344 280.914062 Z M 120.402344 302.542969 " fill-opacity="1" fill-rule="nonzero"/><path fill="#102770" d="M 270.789062 280.910156 L 119.3125 280.910156 C 118.703125 280.910156 118.207031 280.414062 118.207031 279.808594 L 118.207031 175.042969 C 118.207031 167.425781 124.414062 161.230469 132.039062 161.230469 L 258.039062 161.230469 C 265.679688 161.230469 271.890625 167.425781 271.890625 175.042969 L 271.890625 279.808594 C 271.890625 280.414062 271.398438 280.910156 270.789062 280.910156 Z M 120.414062 278.707031 L 269.6875 278.707031 L 269.6875 175.042969 C 269.6875 168.640625 264.460938 163.433594 258.039062 163.433594 L 132.039062 163.433594 C 125.628906 163.433594 120.414062 168.640625 120.414062 175.042969 Z M 120.414062 278.707031 " fill-opacity="1" fill-rule="nonzero"/><path fill="#ffca28" d="M 282.261719 287.464844 L 282.261719 295.964844 C 282.261719 297.15625 281.28125 298.136719 280.113281 298.136719 L 273.589844 298.136719 C 272.398438 298.136719 271.417969 297.15625 271.417969 295.964844 L 271.417969 287.464844 C 271.417969 286.300781 272.398438 285.320312 273.589844 285.320312 L 280.113281 285.320312 C 281.28125 285.320312 282.261719 286.300781 282.261719 287.464844 Z M 282.261719 287.464844 " fill-opacity="1" fill-rule="nonzero"/><path fill="#ffffff" d="M 282.261719 287.457031 L 282.261719 289.21875 C 282.261719 288.050781 281.289062 287.082031 280.121094 287.082031 L 273.589844 287.082031 C 272.398438 287.082031 271.40625 288.050781 271.40625 289.21875 L 271.40625 287.457031 C 271.40625 286.289062 272.398438 285.320312 273.589844 285.320312 L 280.121094 285.320312 C 281.289062 285.320312 282.261719 286.289062 282.261719 287.457031 Z M 282.261719 287.457031 " fill-opacity="0.2" fill-rule="nonzero"/><path fill="#ffa726" d="M 282.261719 292.832031 L 282.261719 295.960938 C 282.261719 297.148438 281.289062 298.140625 280.121094 298.140625 L 273.589844 298.140625 C 272.398438 298.140625 271.40625 297.148438 271.40625 295.960938 L 271.40625 292.832031 C 271.40625 294.042969 272.398438 295.011719 273.589844 295.011719 L 280.121094 295.011719 C 281.289062 295.011719 282.261719 294.042969 282.261719 292.832031 Z M 282.261719 292.832031 " fill-opacity="1" fill-rule="nonzero"/><path fill="#102770" d="M 280.113281 299.238281 L 273.589844 299.238281 C 271.785156 299.238281 270.3125 297.769531 270.3125 295.964844 L 270.3125 287.464844 C 270.3125 285.675781 271.785156 284.21875 273.589844 284.21875 L 280.113281 284.21875 C 281.875 284.21875 283.363281 285.707031 283.363281 287.464844 L 283.363281 295.964844 C 283.363281 297.769531 281.90625 299.238281 280.113281 299.238281 Z M 273.589844 286.421875 C 273.007812 286.421875 272.519531 286.898438 272.519531 287.464844 L 272.519531 295.964844 C 272.519531 296.542969 273.007812 297.035156 273.589844 297.035156 L 280.113281 297.035156 C 280.679688 297.035156 281.15625 296.542969 281.15625 295.964844 L 281.15625 287.464844 C 281.15625 286.910156 280.667969 286.421875 280.113281 286.421875 Z M 273.589844 286.421875 " fill-opacity="1" fill-rule="nonzero"/><g clip-path="url(#2bdc1226ef)"><path fill="#102770" d="M 46.8125 296.90625 L 38.644531 296.90625 C 38.035156 296.90625 37.542969 296.414062 37.542969 295.804688 L 37.542969 277.695312 C 37.542969 277.085938 38.035156 276.59375 38.644531 276.59375 L 46.8125 276.59375 C 49.261719 276.59375 51.253906 278.582031 51.253906 281.03125 L 51.253906 292.46875 C 51.253906 294.914062 49.261719 296.90625 46.8125 296.90625 Z M 39.746094 294.703125 L 46.8125 294.703125 C 48.023438 294.703125 49.046875 293.679688 49.046875 292.46875 L 49.046875 281.03125 C 49.046875 279.796875 48.042969 278.796875 46.8125 278.796875 L 39.746094 278.796875 Z M 39.746094 294.703125 " fill-opacity="1" fill-rule="nonzero"/></g><path fill="#102770" d="M 88.324219 266.695312 L 75.507812 266.695312 C 74.898438 266.695312 74.40625 266.203125 74.40625 265.59375 C 74.40625 264.984375 74.898438 264.492188 75.507812 264.492188 L 88.324219 264.492188 C 88.933594 264.492188 89.429688 264.984375 89.429688 265.59375 C 89.429688 266.203125 88.933594 266.695312 88.324219 266.695312 Z M 88.324219 266.695312 " fill-opacity="1" fill-rule="nonzero"/><path fill="#e6e7e8" d="M 195.015625 284.542969 L 195.015625 307.039062 C 195.015625 309.660156 192.921875 311.777344 190.296875 311.777344 L 150.214844 311.777344 C 147.589844 311.777344 145.472656 309.660156 145.472656 307.039062 L 145.472656 284.542969 C 145.472656 281.921875 147.589844 279.808594 150.214844 279.808594 L 190.296875 279.808594 C 192.921875 279.808594 195.015625 281.921875 195.015625 284.542969 Z M 195.015625 284.542969 " fill-opacity="1" fill-rule="nonzero"/><path fill="#c2c3c4" d="M 195.015625 300.871094 L 195.015625 307.039062 C 195.015625 309.660156 192.921875 311.777344 190.296875 311.777344 L 150.214844 311.777344 C 147.589844 311.777344 145.472656 309.660156 145.472656 307.039062 L 145.472656 300.871094 C 145.472656 303.492188 147.589844 305.628906 150.214844 305.628906 L 190.296875 305.628906 C 192.921875 305.628906 195.015625 303.492188 195.015625 300.871094 Z M 195.015625 300.871094 " fill-opacity="1" fill-rule="nonzero"/><path fill="#c2c3c4" d="M 195.015625 284.550781 L 195.015625 287.480469 C 195.015625 284.859375 192.921875 282.742188 190.296875 282.742188 L 150.214844 282.742188 C 147.589844 282.742188 145.472656 284.859375 145.472656 287.480469 L 145.472656 284.550781 C 145.472656 281.929688 147.589844 279.8125 150.214844 279.8125 L 190.296875 279.8125 C 192.921875 279.8125 195.015625 281.929688 195.015625 284.550781 Z M 195.015625 284.550781 " fill-opacity="0.2" fill-rule="nonzero"/><path fill="#102770" d="M 190.308594 312.871094 L 150.21875 312.871094 C 146.992188 312.871094 144.371094 310.253906 144.371094 307.03125 L 144.371094 284.550781 C 144.371094 281.332031 146.992188 278.710938 150.21875 278.710938 L 190.308594 278.710938 C 193.519531 278.710938 196.128906 281.332031 196.128906 284.550781 L 196.128906 307.03125 C 196.128906 310.253906 193.519531 312.871094 190.308594 312.871094 Z M 150.21875 280.914062 C 148.210938 280.914062 146.574219 282.546875 146.574219 284.550781 L 146.574219 307.03125 C 146.574219 309.039062 148.210938 310.667969 150.21875 310.667969 L 190.308594 310.667969 C 192.300781 310.667969 193.925781 309.039062 193.925781 307.03125 L 193.925781 284.550781 C 193.925781 282.546875 192.300781 280.914062 190.308594 280.914062 Z M 150.21875 280.914062 " fill-opacity="1" fill-rule="nonzero"/><path fill="#878a96" d="M 259.285156 306.175781 C 259.285156 318.433594 249.34375 328.3125 237.140625 328.3125 C 224.839844 328.3125 214.921875 318.433594 214.921875 306.175781 C 214.921875 293.917969 224.839844 284.035156 237.140625 284.035156 C 249.34375 284.035156 259.285156 293.917969 259.285156 306.175781 Z M 259.285156 306.175781 " fill-opacity="1" fill-rule="nonzero"/><path fill="#73757f" d="M 259.28125 306.179688 C 259.28125 318.425781 249.347656 328.324219 237.148438 328.324219 C 229.847656 328.324219 223.386719 324.839844 219.359375 319.453125 C 222.808594 321.695312 226.9375 322.980469 231.390625 322.980469 C 243.589844 322.980469 253.542969 313.082031 253.542969 300.835938 C 253.542969 295.855469 251.917969 291.28125 249.15625 287.582031 C 255.234375 291.515625 259.28125 298.355469 259.28125 306.179688 Z M 259.28125 306.179688 " fill-opacity="1" fill-rule="nonzero"/><g clip-path="url(#6c2283dd18)"><path fill="#102770" d="M 237.140625 329.414062 C 224.28125 329.414062 213.820312 318.988281 213.820312 306.175781 C 213.820312 293.359375 224.28125 282.933594 237.140625 282.933594 C 249.957031 282.933594 260.386719 293.359375 260.386719 306.175781 C 260.386719 318.988281 249.957031 329.414062 237.140625 329.414062 Z M 237.140625 285.136719 C 225.496094 285.136719 216.023438 294.574219 216.023438 306.175781 C 216.023438 317.777344 225.496094 327.214844 237.140625 327.214844 C 248.742188 327.214844 258.183594 317.777344 258.183594 306.175781 C 258.183594 294.574219 248.742188 285.136719 237.140625 285.136719 Z M 237.140625 285.136719 " fill-opacity="1" fill-rule="nonzero"/></g><path fill="#ffffff" d="M 246.726562 306.175781 C 246.726562 311.515625 242.378906 315.8125 237.042969 315.773438 C 231.820312 315.738281 227.402344 311.246094 227.480469 306.03125 C 227.558594 300.78125 231.839844 296.574219 237.117188 296.574219 C 242.417969 296.574219 246.726562 300.859375 246.726562 306.175781 Z M 246.726562 306.175781 " fill-opacity="1" fill-rule="nonzero"/><path fill="#e6e7e8" d="M 246.738281 306.179688 C 246.738281 311.523438 242.371094 315.820312 237.039062 315.777344 C 233.53125 315.753906 230.382812 313.703125 228.734375 310.773438 C 229.828125 311.246094 231.003906 311.503906 232.226562 311.503906 C 237.554688 311.542969 241.921875 307.25 241.921875 301.90625 C 241.921875 300.238281 241.492188 298.65625 240.742188 297.289062 C 244.253906 298.71875 246.738281 302.140625 246.738281 306.179688 Z M 246.738281 306.179688 " fill-opacity="1" fill-rule="nonzero"/><path fill="#102770" d="M 237.117188 316.875 C 231.195312 316.875 226.375 312.074219 226.375 306.175781 C 226.375 300.273438 231.195312 295.472656 237.117188 295.472656 C 243.023438 295.472656 247.832031 300.273438 247.832031 306.175781 C 247.832031 312.074219 243.023438 316.875 237.117188 316.875 Z M 237.117188 297.675781 C 232.410156 297.675781 228.582031 301.488281 228.582031 306.175781 C 228.582031 310.859375 232.410156 314.671875 237.117188 314.671875 C 241.808594 314.671875 245.625 310.859375 245.625 306.175781 C 245.625 301.488281 241.808594 297.675781 237.117188 297.675781 Z M 237.117188 297.675781 " fill-opacity="1" fill-rule="nonzero"/><path fill="#102770" d="M 237.117188 316.875 C 231.195312 316.875 226.375 312.074219 226.375 306.175781 C 226.375 300.273438 231.195312 295.472656 237.117188 295.472656 C 243.023438 295.472656 247.832031 300.273438 247.832031 306.175781 C 247.832031 312.074219 243.023438 316.875 237.117188 316.875 Z M 237.117188 297.675781 C 232.410156 297.675781 228.582031 301.488281 228.582031 306.175781 C 228.582031 310.859375 232.410156 314.671875 237.117188 314.671875 C 241.808594 314.671875 245.625 310.859375 245.625 306.175781 C 245.625 301.488281 241.808594 297.675781 237.117188 297.675781 Z M 237.117188 297.675781 " fill-opacity="1" fill-rule="nonzero"/><path fill="#878a96" d="M 104.097656 306.175781 C 104.097656 318.433594 94.15625 328.3125 81.953125 328.3125 C 69.652344 328.3125 59.734375 318.433594 59.734375 306.175781 C 59.734375 293.917969 69.652344 284.035156 81.953125 284.035156 C 94.15625 284.035156 104.097656 293.917969 104.097656 306.175781 Z M 104.097656 306.175781 " fill-opacity="1" fill-rule="nonzero"/><path fill="#73757f" d="M 104.09375 306.179688 C 104.09375 318.425781 94.160156 328.324219 81.960938 328.324219 C 74.664062 328.324219 68.199219 324.839844 64.175781 319.453125 C 67.621094 321.695312 71.75 322.980469 76.203125 322.980469 C 88.402344 322.980469 98.355469 313.082031 98.355469 300.835938 C 98.355469 295.855469 96.730469 291.28125 93.96875 287.582031 C 100.046875 291.515625 104.09375 298.355469 104.09375 306.179688 Z M 104.09375 306.179688 " fill-opacity="1" fill-rule="nonzero"/><g clip-path="url(#824acd89b3)"><path fill="#102770" d="M 81.953125 329.414062 C 69.09375 329.414062 58.632812 318.988281 58.632812 306.175781 C 58.632812 293.359375 69.09375 282.933594 81.953125 282.933594 C 94.773438 282.933594 105.203125 293.359375 105.203125 306.175781 C 105.203125 318.988281 94.773438 329.414062 81.953125 329.414062 Z M 81.953125 285.136719 C 70.308594 285.136719 60.835938 294.574219 60.835938 306.175781 C 60.835938 317.777344 70.308594 327.214844 81.953125 327.214844 C 93.554688 327.214844 102.996094 317.777344 102.996094 306.175781 C 102.996094 294.574219 93.554688 285.136719 81.953125 285.136719 Z M 81.953125 285.136719 " fill-opacity="1" fill-rule="nonzero"/></g><path fill="#ffffff" d="M 91.542969 306.175781 C 91.542969 311.515625 87.191406 315.8125 81.859375 315.773438 C 76.632812 315.738281 72.214844 311.246094 72.292969 306.03125 C 72.371094 300.78125 76.652344 296.574219 81.929688 296.574219 C 87.230469 296.574219 91.542969 300.859375 91.542969 306.175781 Z M 91.542969 306.175781 " fill-opacity="1" fill-rule="nonzero"/><path fill="#e6e7e8" d="M 91.550781 306.179688 C 91.550781 311.523438 87.183594 315.820312 81.855469 315.777344 C 78.34375 315.753906 75.199219 313.703125 73.550781 310.773438 C 74.640625 311.246094 75.816406 311.503906 77.039062 311.503906 C 82.367188 311.542969 86.734375 307.25 86.734375 301.90625 C 86.734375 300.238281 86.304688 298.65625 85.558594 297.289062 C 89.066406 298.71875 91.550781 302.140625 91.550781 306.179688 Z M 91.550781 306.179688 " fill-opacity="1" fill-rule="nonzero"/><path fill="#102770" d="M 81.929688 316.875 C 76.007812 316.875 71.191406 312.074219 71.191406 306.175781 C 71.191406 300.273438 76.007812 295.472656 81.929688 295.472656 C 87.835938 295.472656 92.644531 300.273438 92.644531 306.175781 C 92.644531 312.074219 87.835938 316.875 81.929688 316.875 Z M 81.929688 297.675781 C 77.222656 297.675781 73.394531 301.488281 73.394531 306.175781 C 73.394531 310.859375 77.222656 314.671875 81.929688 314.671875 C 86.621094 314.671875 90.4375 310.859375 90.4375 306.175781 C 90.4375 301.488281 86.621094 297.675781 81.929688 297.675781 Z M 81.929688 297.675781 " fill-opacity="1" fill-rule="nonzero"/><path fill="#102770" d="M 81.929688 316.875 C 76.007812 316.875 71.191406 312.074219 71.191406 306.175781 C 71.191406 300.273438 76.007812 295.472656 81.929688 295.472656 C 87.835938 295.472656 92.644531 300.273438 92.644531 306.175781 C 92.644531 312.074219 87.835938 316.875 81.929688 316.875 Z M 81.929688 297.675781 C 77.222656 297.675781 73.394531 301.488281 73.394531 306.175781 C 73.394531 310.859375 77.222656 314.671875 81.929688 314.671875 C 86.621094 314.671875 90.4375 310.859375 90.4375 306.175781 C 90.4375 301.488281 86.621094 297.675781 81.929688 297.675781 Z M 81.929688 297.675781 " fill-opacity="1" fill-rule="nonzero"/><path fill="#22a7f0" d="M 271.917969 127.921875 L 283.605469 127.921875 L 283.605469 144.773438 L 271.917969 144.773438 Z M 271.917969 127.921875 " fill-opacity="1" fill-rule="nonzero"/><path fill="#ffffff" d="M 271.917969 127.921875 L 274.867188 127.921875 L 274.867188 144.773438 L 271.917969 144.773438 Z M 271.917969 127.921875 " fill-opacity="0.2" fill-rule="nonzero"/><path fill="#1c7fc8" d="M 279.28125 127.917969 L 283.605469 127.917969 L 283.605469 144.765625 L 279.28125 144.765625 Z M 279.28125 127.917969 " fill-opacity="1" fill-rule="nonzero"/><path fill="#102770" d="M 283.605469 144.710938 L 271.917969 144.710938 C 271.308594 144.710938 270.816406 144.21875 270.816406 143.609375 L 270.816406 126.757812 C 270.816406 126.148438 271.308594 125.65625 271.917969 125.65625 L 283.605469 125.65625 C 284.214844 125.65625 284.707031 126.148438 284.707031 126.757812 L 284.707031 143.609375 C 284.707031 144.21875 284.214844 144.710938 283.605469 144.710938 Z M 273.019531 142.511719 L 282.5 142.511719 L 282.5 127.859375 L 273.019531 127.859375 Z M 273.019531 142.511719 " fill-opacity="1" fill-rule="nonzero"/><path fill="#22a7f0" d="M 321.355469 180.71875 C 321.355469 182.144531 321.285156 183.566406 321.144531 184.988281 C 321.003906 186.40625 320.796875 187.8125 320.515625 189.210938 C 320.238281 190.609375 319.890625 191.992188 319.476562 193.355469 C 319.0625 194.722656 318.582031 196.0625 318.035156 197.378906 C 317.488281 198.695312 316.878906 199.984375 316.207031 201.242188 C 315.535156 202.5 314.800781 203.71875 314.007812 204.90625 C 313.214844 206.089844 312.367188 207.234375 311.460938 208.335938 C 310.554688 209.4375 309.597656 210.496094 308.585938 211.503906 C 307.578125 212.511719 306.519531 213.46875 305.417969 214.371094 C 304.3125 215.277344 303.167969 216.125 301.980469 216.917969 C 300.792969 217.707031 299.570312 218.441406 298.3125 219.113281 C 297.050781 219.785156 295.761719 220.394531 294.441406 220.9375 C 293.125 221.484375 291.78125 221.964844 290.414062 222.378906 C 289.050781 222.792969 287.664062 223.136719 286.265625 223.417969 C 284.863281 223.695312 283.453125 223.902344 282.035156 224.042969 C 280.613281 224.183594 279.1875 224.253906 277.761719 224.253906 C 276.332031 224.253906 274.90625 224.183594 273.488281 224.042969 C 272.066406 223.902344 270.65625 223.695312 269.253906 223.417969 C 267.855469 223.136719 266.472656 222.792969 265.105469 222.378906 C 263.738281 221.964844 262.394531 221.484375 261.078125 220.9375 C 259.757812 220.394531 258.46875 219.785156 257.210938 219.113281 C 255.949219 218.441406 254.726562 217.707031 253.539062 216.917969 C 252.351562 216.125 251.207031 215.277344 250.105469 214.371094 C 249 213.46875 247.945312 212.511719 246.933594 211.503906 C 245.925781 210.496094 244.964844 209.4375 244.0625 208.335938 C 243.15625 207.234375 242.304688 206.089844 241.511719 204.90625 C 240.71875 203.71875 239.984375 202.5 239.3125 201.242188 C 238.640625 199.984375 238.03125 198.695312 237.484375 197.378906 C 236.9375 196.0625 236.457031 194.722656 236.042969 193.355469 C 235.628906 191.992188 235.28125 190.609375 235.003906 189.210938 C 234.722656 187.8125 234.515625 186.40625 234.375 184.988281 C 234.234375 183.566406 234.164062 182.144531 234.164062 180.71875 C 234.164062 179.292969 234.234375 177.871094 234.375 176.453125 C 234.515625 175.035156 234.722656 173.625 235.003906 172.226562 C 235.28125 170.828125 235.628906 169.445312 236.042969 168.082031 C 236.457031 166.71875 236.9375 165.375 237.484375 164.058594 C 238.03125 162.742188 238.640625 161.453125 239.3125 160.199219 C 239.984375 158.941406 240.71875 157.71875 241.511719 156.535156 C 242.304688 155.347656 243.15625 154.203125 244.0625 153.101562 C 244.964844 152 245.925781 150.945312 246.933594 149.9375 C 247.945312 148.929688 249 147.972656 250.105469 147.066406 C 251.207031 146.164062 252.351562 145.3125 253.539062 144.523438 C 254.726562 143.730469 255.949219 142.996094 257.210938 142.324219 C 258.46875 141.652344 259.757812 141.046875 261.078125 140.5 C 262.394531 139.953125 263.738281 139.472656 265.105469 139.058594 C 266.472656 138.644531 267.855469 138.300781 269.253906 138.023438 C 270.65625 137.742188 272.066406 137.535156 273.488281 137.394531 C 274.90625 137.253906 276.332031 137.183594 277.761719 137.183594 C 279.1875 137.183594 280.613281 137.253906 282.035156 137.394531 C 283.453125 137.535156 284.863281 137.742188 286.265625 138.023438 C 287.664062 138.300781 289.050781 138.644531 290.414062 139.058594 C 291.78125 139.472656 293.125 139.953125 294.441406 140.5 C 295.761719 141.046875 297.050781 141.652344 298.3125 142.324219 C 299.570312 142.996094 300.792969 143.730469 301.980469 144.523438 C 303.167969 145.3125 304.3125 146.164062 305.417969 147.066406 C 306.519531 147.972656 307.578125 148.929688 308.585938 149.9375 C 309.597656 150.945312 310.554688 152 311.460938 153.101562 C 312.367188 154.203125 313.214844 155.347656 314.007812 156.535156 C 314.800781 157.71875 315.535156 158.941406 316.207031 160.199219 C 316.878906 161.453125 317.488281 162.742188 318.035156 164.058594 C 318.582031 165.375 319.0625 166.71875 319.476562 168.082031 C 319.890625 169.445312 320.238281 170.828125 320.515625 172.226562 C 320.796875 173.625 321.003906 175.035156 321.144531 176.453125 C 321.285156 177.871094 321.355469 179.292969 321.355469 180.71875 Z M 321.355469 180.71875 " fill-opacity="1" fill-rule="nonzero"/><path fill="#1c7fc8" d="M 321.347656 180.71875 C 321.347656 204.75 301.847656 224.246094 277.757812 224.246094 C 261.875 224.246094 248 215.785156 240.390625 203.140625 C 248.042969 209.773438 258.015625 213.78125 268.933594 213.78125 C 293.023438 213.78125 312.523438 194.285156 312.523438 170.253906 C 312.523438 162.039062 310.25 154.351562 306.28125 147.808594 C 315.5 155.757812 321.347656 167.566406 321.347656 180.71875 Z M 321.347656 180.71875 " fill-opacity="1" fill-rule="nonzero"/><path fill="#ffffff" d="M 311.476562 180.71875 C 311.476562 181.820312 311.421875 182.921875 311.3125 184.019531 C 311.203125 185.117188 311.042969 186.207031 310.828125 187.289062 C 310.613281 188.367188 310.34375 189.4375 310.023438 190.492188 C 309.703125 191.546875 309.332031 192.585938 308.910156 193.601562 C 308.484375 194.621094 308.015625 195.617188 307.492188 196.589844 C 306.972656 197.5625 306.40625 198.507812 305.792969 199.425781 C 305.179688 200.339844 304.523438 201.226562 303.820312 202.078125 C 303.121094 202.929688 302.382812 203.746094 301.601562 204.527344 C 300.820312 205.304688 300.003906 206.046875 299.148438 206.746094 C 298.296875 207.445312 297.410156 208.101562 296.492188 208.710938 C 295.574219 209.324219 294.628906 209.890625 293.652344 210.410156 C 292.679688 210.929688 291.683594 211.402344 290.664062 211.824219 C 289.640625 212.246094 288.605469 212.617188 287.546875 212.9375 C 286.492188 213.257812 285.421875 213.523438 284.335938 213.738281 C 283.253906 213.953125 282.164062 214.117188 281.066406 214.226562 C 279.964844 214.332031 278.863281 214.386719 277.761719 214.386719 C 276.65625 214.386719 275.554688 214.332031 274.457031 214.226562 C 273.355469 214.117188 272.265625 213.953125 271.183594 213.738281 C 270.101562 213.523438 269.03125 213.257812 267.972656 212.9375 C 266.917969 212.617188 265.878906 212.246094 264.859375 211.824219 C 263.839844 211.402344 262.839844 210.929688 261.867188 210.410156 C 260.894531 209.890625 259.949219 209.324219 259.03125 208.710938 C 258.109375 208.101562 257.226562 207.445312 256.371094 206.746094 C 255.519531 206.046875 254.699219 205.304688 253.921875 204.527344 C 253.140625 203.746094 252.398438 202.929688 251.699219 202.078125 C 250.996094 201.226562 250.339844 200.339844 249.726562 199.425781 C 249.113281 198.507812 248.546875 197.5625 248.027344 196.589844 C 247.507812 195.617188 247.035156 194.621094 246.613281 193.601562 C 246.1875 192.585938 245.816406 191.546875 245.496094 190.492188 C 245.175781 189.4375 244.910156 188.367188 244.695312 187.289062 C 244.476562 186.207031 244.316406 185.117188 244.207031 184.019531 C 244.101562 182.921875 244.046875 181.820312 244.046875 180.71875 C 244.046875 179.617188 244.101562 178.515625 244.207031 177.417969 C 244.316406 176.320312 244.476562 175.234375 244.695312 174.152344 C 244.910156 173.070312 245.175781 172 245.496094 170.945312 C 245.816406 169.890625 246.1875 168.855469 246.613281 167.835938 C 247.035156 166.816406 247.507812 165.820312 248.027344 164.847656 C 248.546875 163.875 249.113281 162.929688 249.726562 162.015625 C 250.339844 161.097656 250.996094 160.214844 251.699219 159.359375 C 252.398438 158.507812 253.140625 157.691406 253.921875 156.914062 C 254.699219 156.132812 255.519531 155.394531 256.371094 154.695312 C 257.226562 153.996094 258.109375 153.339844 259.03125 152.726562 C 259.949219 152.113281 260.894531 151.546875 261.867188 151.027344 C 262.839844 150.507812 263.839844 150.035156 264.859375 149.613281 C 265.878906 149.191406 266.917969 148.820312 267.972656 148.5 C 269.03125 148.179688 270.101562 147.914062 271.183594 147.699219 C 272.265625 147.484375 273.355469 147.320312 274.457031 147.214844 C 275.554688 147.105469 276.65625 147.050781 277.761719 147.050781 C 278.863281 147.050781 279.964844 147.105469 281.066406 147.214844 C 282.164062 147.320312 283.253906 147.484375 284.335938 147.699219 C 285.421875 147.914062 286.492188 148.179688 287.546875 148.5 C 288.605469 148.820312 289.640625 149.191406 290.664062 149.613281 C 291.683594 150.035156 292.679688 150.507812 293.652344 151.027344 C 294.628906 151.546875 295.574219 152.113281 296.492188 152.726562 C 297.410156 153.339844 298.296875 153.996094 299.148438 154.695312 C 300.003906 155.394531 300.820312 156.132812 301.601562 156.914062 C 302.382812 157.691406 303.121094 158.507812 303.820312 159.359375 C 304.523438 160.214844 305.179688 161.097656 305.792969 162.015625 C 306.40625 162.929688 306.972656 163.875 307.492188 164.847656 C 308.015625 165.820312 308.484375 166.816406 308.910156 167.835938 C 309.332031 168.855469 309.703125 169.890625 310.023438 170.945312 C 310.34375 172 310.613281 173.070312 310.828125 174.152344 C 311.042969 175.234375 311.203125 176.320312 311.3125 177.417969 C 311.421875 178.515625 311.476562 179.617188 311.476562 180.71875 Z M 311.476562 180.71875 " fill-opacity="1" fill-rule="nonzero"/><path fill="#e6e7e8" d="M 311.484375 180.71875 C 311.484375 199.308594 296.398438 214.375 277.757812 214.375 C 264.082031 214.375 252.300781 206.246094 247.03125 194.550781 C 253.207031 201.953125 262.515625 206.667969 272.925781 206.667969 C 291.566406 206.667969 306.65625 191.597656 306.65625 173.007812 C 306.65625 168.074219 305.597656 163.382812 303.675781 159.171875 C 308.550781 165.011719 311.484375 172.523438 311.484375 180.71875 Z M 311.484375 180.71875 " fill-opacity="1" fill-rule="nonzero"/><g clip-path="url(#679380a6a8)"><path fill="#102770" d="M 277.761719 225.351562 C 253.117188 225.351562 233.066406 205.328125 233.066406 180.71875 C 233.066406 156.105469 253.117188 136.082031 277.761719 136.082031 C 302.40625 136.082031 322.457031 156.105469 322.457031 180.71875 C 322.457031 205.328125 302.40625 225.351562 277.761719 225.351562 Z M 277.761719 138.285156 C 254.332031 138.285156 235.269531 157.320312 235.269531 180.71875 C 235.269531 204.117188 254.332031 223.148438 277.761719 223.148438 C 301.191406 223.148438 320.253906 204.117188 320.253906 180.71875 C 320.253906 157.320312 301.191406 138.285156 277.761719 138.285156 Z M 277.761719 138.285156 " fill-opacity="1" fill-rule="nonzero"/></g><path fill="#102770" d="M 277.761719 215.488281 C 258.5625 215.488281 242.941406 199.890625 242.941406 180.71875 C 242.941406 161.546875 258.5625 145.949219 277.761719 145.949219 C 296.960938 145.949219 312.578125 161.546875 312.578125 180.71875 C 312.578125 199.890625 296.960938 215.488281 277.761719 215.488281 Z M 277.761719 148.152344 C 259.777344 148.152344 245.148438 162.761719 245.148438 180.71875 C 245.148438 198.675781 259.777344 213.285156 277.761719 213.285156 C 295.742188 213.285156 310.375 198.675781 310.375 180.71875 C 310.375 162.761719 295.742188 148.152344 277.761719 148.152344 Z M 277.761719 148.152344 " fill-opacity="1" fill-rule="nonzero"/><path fill="#102770" d="M 277.761719 152.402344 C 277.152344 152.402344 276.660156 151.910156 276.660156 151.300781 L 276.660156 147.261719 C 276.660156 146.652344 277.152344 146.160156 277.761719 146.160156 C 278.371094 146.160156 278.863281 146.652344 278.863281 147.261719 L 278.863281 151.300781 C 278.863281 151.910156 278.371094 152.402344 277.761719 152.402344 Z M 277.761719 152.402344 " fill-opacity="1" fill-rule="nonzero"/><path fill="#102770" d="M 277.761719 215.277344 C 277.152344 215.277344 276.660156 214.78125 276.660156 214.175781 L 276.660156 210.136719 C 276.660156 209.527344 277.152344 209.035156 277.761719 209.035156 C 278.371094 209.035156 278.863281 209.527344 278.863281 210.136719 L 278.863281 214.175781 C 278.863281 214.78125 278.371094 215.277344 277.761719 215.277344 Z M 277.761719 215.277344 " fill-opacity="1" fill-rule="nonzero"/><path fill="#102770" d="M 248.300781 181.820312 L 244.257812 181.820312 C 243.648438 181.820312 243.15625 181.328125 243.15625 180.71875 C 243.15625 180.109375 243.648438 179.617188 244.257812 179.617188 L 248.300781 179.617188 C 248.910156 179.617188 249.40625 180.109375 249.40625 180.71875 C 249.40625 181.328125 248.910156 181.820312 248.300781 181.820312 Z M 248.300781 181.820312 " fill-opacity="1" fill-rule="nonzero"/><path fill="#102770" d="M 311.261719 181.820312 L 307.21875 181.820312 C 306.609375 181.820312 306.117188 181.328125 306.117188 180.71875 C 306.117188 180.109375 306.609375 179.617188 307.21875 179.617188 L 311.261719 179.617188 C 311.875 179.617188 312.367188 180.109375 312.367188 180.71875 C 312.367188 181.328125 311.875 181.820312 311.261719 181.820312 Z M 311.261719 181.820312 " fill-opacity="1" fill-rule="nonzero"/><path fill="#102770" d="M 256.929688 161.019531 C 256.648438 161.019531 256.367188 160.910156 256.152344 160.695312 L 253.292969 157.839844 C 252.859375 157.410156 252.859375 156.714844 253.292969 156.28125 C 253.722656 155.851562 254.421875 155.851562 254.851562 156.28125 L 257.710938 159.136719 C 258.140625 159.566406 258.140625 160.265625 257.710938 160.695312 C 257.496094 160.910156 257.210938 161.019531 256.929688 161.019531 Z M 256.929688 161.019531 " fill-opacity="1" fill-rule="nonzero"/><path fill="#102770" d="M 301.449219 205.476562 C 301.167969 205.476562 300.886719 205.371094 300.671875 205.152344 L 297.8125 202.300781 C 297.382812 201.867188 297.382812 201.171875 297.8125 200.742188 C 298.242188 200.3125 298.941406 200.3125 299.371094 200.742188 L 302.230469 203.597656 C 302.660156 204.027344 302.660156 204.722656 302.230469 205.152344 C 302.015625 205.371094 301.734375 205.476562 301.449219 205.476562 Z M 301.449219 205.476562 " fill-opacity="1" fill-rule="nonzero"/><path fill="#102770" d="M 254.070312 205.476562 C 253.789062 205.476562 253.507812 205.371094 253.292969 205.152344 C 252.859375 204.722656 252.859375 204.027344 253.292969 203.597656 L 256.148438 200.742188 C 256.582031 200.3125 257.277344 200.3125 257.710938 200.742188 C 258.140625 201.171875 258.140625 201.867188 257.710938 202.300781 L 254.851562 205.152344 C 254.636719 205.371094 254.351562 205.476562 254.070312 205.476562 Z M 254.070312 205.476562 " fill-opacity="1" fill-rule="nonzero"/><path fill="#102770" d="M 298.589844 161.019531 C 298.308594 161.019531 298.027344 160.910156 297.8125 160.695312 C 297.378906 160.265625 297.378906 159.566406 297.8125 159.136719 L 300.671875 156.28125 C 301.101562 155.851562 301.800781 155.851562 302.230469 156.28125 C 302.660156 156.714844 302.660156 157.410156 302.230469 157.839844 L 299.371094 160.695312 C 299.15625 160.910156 298.875 161.019531 298.589844 161.019531 Z M 298.589844 161.019531 " fill-opacity="1" fill-rule="nonzero"/><path fill="#102770" d="M 290.972656 195.015625 C 290.691406 195.015625 290.410156 194.90625 290.195312 194.691406 L 272.214844 176.738281 C 271.785156 176.308594 271.785156 175.613281 272.214844 175.179688 C 272.648438 174.75 273.34375 174.75 273.777344 175.179688 L 291.753906 193.132812 C 292.183594 193.5625 292.183594 194.261719 291.753906 194.691406 C 291.539062 194.90625 291.257812 195.015625 290.972656 195.015625 Z M 290.972656 195.015625 " fill-opacity="1" fill-rule="nonzero"/><path fill="#102770" d="M 272.539062 187.03125 C 272.257812 187.03125 271.976562 186.925781 271.761719 186.710938 C 271.332031 186.28125 271.332031 185.582031 271.761719 185.152344 L 291.804688 165.136719 C 292.234375 164.707031 292.933594 164.707031 293.363281 165.136719 C 293.792969 165.566406 293.792969 166.265625 293.363281 166.695312 L 273.320312 186.710938 C 273.105469 186.925781 272.824219 187.03125 272.539062 187.03125 Z M 272.539062 187.03125 " fill-opacity="1" fill-rule="nonzero"/><path fill="#22a7f0" d="M 286.484375 130.710938 L 269.039062 130.710938 C 267.441406 130.710938 266.148438 129.417969 266.148438 127.824219 L 266.148438 121.925781 C 266.148438 120.332031 267.441406 119.039062 269.039062 119.039062 L 286.484375 119.039062 C 288.078125 119.039062 289.375 120.332031 289.375 121.925781 L 289.375 127.824219 C 289.375 129.417969 288.078125 130.710938 286.484375 130.710938 Z M 286.484375 130.710938 " fill-opacity="1" fill-rule="nonzero"/><path fill="#ffffff" d="M 289.382812 121.925781 L 289.382812 124.039062 C 289.382812 122.429688 288.082031 121.152344 286.492188 121.152344 L 269.042969 121.152344 C 267.433594 121.152344 266.15625 122.453125 266.15625 124.039062 L 266.15625 121.925781 C 266.15625 120.339844 267.433594 119.039062 269.042969 119.039062 L 286.492188 119.039062 C 288.082031 119.039062 289.382812 120.339844 289.382812 121.925781 Z M 289.382812 121.925781 " fill-opacity="0.2" fill-rule="nonzero"/><path fill="#1c7fc8" d="M 289.382812 123.886719 L 289.382812 127.828125 C 289.382812 129.414062 288.082031 130.714844 286.492188 130.714844 L 269.042969 130.714844 C 267.433594 130.714844 266.15625 129.414062 266.15625 127.828125 L 266.15625 123.886719 C 266.15625 125.472656 267.433594 126.769531 269.042969 126.769531 L 286.492188 126.769531 C 288.082031 126.769531 289.382812 125.472656 289.382812 123.886719 Z M 289.382812 123.886719 " fill-opacity="1" fill-rule="nonzero"/><path fill="#102770" d="M 286.484375 131.8125 L 269.039062 131.8125 C 266.835938 131.8125 265.046875 130.023438 265.046875 127.824219 L 265.046875 121.925781 C 265.046875 119.726562 266.835938 117.9375 269.039062 117.9375 L 286.484375 117.9375 C 288.683594 117.9375 290.476562 119.726562 290.476562 121.925781 L 290.476562 127.824219 C 290.476562 130.023438 288.683594 131.8125 286.484375 131.8125 Z M 269.039062 120.140625 C 268.054688 120.140625 267.25 120.941406 267.25 121.925781 L 267.25 127.824219 C 267.25 128.808594 268.054688 129.609375 269.039062 129.609375 L 286.484375 129.609375 C 287.46875 129.609375 288.269531 128.808594 288.269531 127.824219 L 288.269531 121.925781 C 288.269531 120.941406 287.46875 120.140625 286.484375 120.140625 Z M 269.039062 120.140625 " fill-opacity="1" fill-rule="nonzero"/><path fill="#102770" d="M 281.601562 180.582031 C 281.601562 181.097656 281.5 181.59375 281.304688 182.074219 C 281.105469 182.550781 280.824219 182.972656 280.457031 183.339844 C 280.089844 183.703125 279.667969 183.988281 279.1875 184.183594 C 278.710938 184.382812 278.210938 184.480469 277.695312 184.480469 C 277.175781 184.480469 276.675781 184.382812 276.199219 184.183594 C 275.71875 183.988281 275.296875 183.703125 274.933594 183.339844 C 274.566406 182.972656 274.28125 182.550781 274.085938 182.074219 C 273.886719 181.59375 273.789062 181.097656 273.789062 180.582031 C 273.789062 180.0625 273.886719 179.566406 274.085938 179.085938 C 274.28125 178.609375 274.566406 178.1875 274.933594 177.820312 C 275.296875 177.457031 275.71875 177.175781 276.199219 176.976562 C 276.675781 176.777344 277.175781 176.679688 277.695312 176.679688 C 278.210938 176.679688 278.710938 176.777344 279.1875 176.976562 C 279.667969 177.175781 280.089844 177.457031 280.457031 177.820312 C 280.824219 178.1875 281.105469 178.609375 281.304688 179.085938 C 281.5 179.566406 281.601562 180.0625 281.601562 180.582031 Z M 281.601562 180.582031 " fill-opacity="1" fill-rule="nonzero"/><path fill="#102770" d="M 307.261719 231.953125 L 285.15625 231.953125 C 284.546875 231.953125 284.054688 231.460938 284.054688 230.851562 C 284.054688 230.242188 284.546875 229.75 285.15625 229.75 L 307.261719 229.75 C 307.871094 229.75 308.363281 230.242188 308.363281 230.851562 C 308.363281 231.460938 307.871094 231.953125 307.261719 231.953125 Z M 307.261719 231.953125 " fill-opacity="1" fill-rule="nonzero"/><path fill="#102770" d="M 281.914062 231.953125 L 277.761719 231.953125 C 277.152344 231.953125 276.660156 231.460938 276.660156 230.851562 C 276.660156 230.242188 277.152344 229.75 277.761719 229.75 L 281.914062 229.75 C 282.527344 229.75 283.019531 230.242188 283.019531 230.851562 C 283.019531 231.460938 282.527344 231.953125 281.914062 231.953125 Z M 281.914062 231.953125 " fill-opacity="1" fill-rule="nonzero"/><path fill="#102770" d="M 316.613281 242.828125 L 309.351562 242.828125 C 308.742188 242.828125 308.25 242.335938 308.25 241.726562 C 308.25 241.117188 308.742188 240.625 309.351562 240.625 L 316.613281 240.625 C 317.222656 240.625 317.71875 241.117188 317.71875 241.726562 C 317.71875 242.335938 317.222656 242.828125 316.613281 242.828125 Z M 316.613281 242.828125 " fill-opacity="1" fill-rule="nonzero"/><path fill="#102770" d="M 305.835938 242.828125 L 287.113281 242.828125 C 286.503906 242.828125 286.011719 242.335938 286.011719 241.726562 C 286.011719 241.117188 286.503906 240.625 287.113281 240.625 L 305.835938 240.625 C 306.445312 240.625 306.9375 241.117188 306.9375 241.726562 C 306.9375 242.335938 306.445312 242.828125 305.835938 242.828125 Z M 305.835938 242.828125 " fill-opacity="1" fill-rule="nonzero"/><path fill="#102770" d="M 307.261719 253.703125 L 297.703125 253.703125 C 297.09375 253.703125 296.597656 253.210938 296.597656 252.601562 C 296.597656 251.996094 297.09375 251.503906 297.703125 251.503906 L 307.261719 251.503906 C 307.871094 251.503906 308.363281 251.996094 308.363281 252.601562 C 308.363281 253.210938 307.871094 253.703125 307.261719 253.703125 Z M 307.261719 253.703125 " fill-opacity="1" fill-rule="nonzero"/><path fill="#102770" d="M 293.910156 253.703125 L 277.761719 253.703125 C 277.152344 253.703125 276.660156 253.210938 276.660156 252.601562 C 276.660156 251.996094 277.152344 251.503906 277.761719 251.503906 L 293.910156 251.503906 C 294.519531 251.503906 295.011719 251.996094 295.011719 252.601562 C 295.011719 253.210938 294.519531 253.703125 293.910156 253.703125 Z M 293.910156 253.703125 " fill-opacity="1" fill-rule="nonzero"/><path fill="#102770" d="M 316.613281 264.582031 L 311.351562 264.582031 C 310.742188 264.582031 310.246094 264.089844 310.246094 263.480469 C 310.246094 262.871094 310.742188 262.378906 311.351562 262.378906 L 316.613281 262.378906 C 317.222656 262.378906 317.71875 262.871094 317.71875 263.480469 C 317.71875 264.089844 317.222656 264.582031 316.613281 264.582031 Z M 316.613281 264.582031 " fill-opacity="1" fill-rule="nonzero"/><path fill="#102770" d="M 307.695312 264.582031 L 287.113281 264.582031 C 286.503906 264.582031 286.011719 264.089844 286.011719 263.480469 C 286.011719 262.871094 286.503906 262.378906 287.113281 262.378906 L 307.695312 262.378906 C 308.308594 262.378906 308.800781 262.871094 308.800781 263.480469 C 308.800781 264.089844 308.308594 264.582031 307.695312 264.582031 Z M 307.695312 264.582031 " fill-opacity="1" fill-rule="nonzero"/><path fill="#102770" d="M 307.261719 275.457031 L 290.53125 275.457031 C 289.921875 275.457031 289.429688 274.964844 289.429688 274.355469 C 289.429688 273.746094 289.921875 273.253906 290.53125 273.253906 L 307.261719 273.253906 C 307.871094 273.253906 308.363281 273.746094 308.363281 274.355469 C 308.363281 274.964844 307.871094 275.457031 307.261719 275.457031 Z M 307.261719 275.457031 " fill-opacity="1" fill-rule="nonzero"/><path fill="#102770" d="M 286.191406 275.457031 L 277.761719 275.457031 C 277.152344 275.457031 276.660156 274.964844 276.660156 274.355469 C 276.660156 273.746094 277.152344 273.253906 277.761719 273.253906 L 286.191406 273.253906 C 286.800781 273.253906 287.292969 273.746094 287.292969 274.355469 C 287.292969 274.964844 286.800781 275.457031 286.191406 275.457031 Z M 286.191406 275.457031 " fill-opacity="1" fill-rule="nonzero"/><path fill="#ffca28" d="M 215.636719 162.285156 L 215.636719 192.359375 C 215.636719 193.78125 214.136719 194.605469 212.953125 193.898438 L 206.28125 189.957031 C 205.726562 189.601562 205.019531 189.601562 204.464844 189.957031 L 195.976562 194.960938 C 195.425781 195.316406 194.714844 195.316406 194.164062 194.960938 L 185.675781 189.957031 C 185.121094 189.601562 184.414062 189.601562 183.859375 189.957031 L 177.148438 193.898438 C 175.964844 194.605469 174.464844 193.78125 174.464844 192.398438 L 174.464844 162.285156 Z M 215.636719 162.285156 " fill-opacity="1" fill-rule="nonzero"/><path fill="#ffa726" d="M 215.636719 186.761719 L 215.636719 192.359375 C 215.636719 193.78125 214.136719 194.605469 212.953125 193.898438 L 206.28125 189.957031 C 205.726562 189.601562 205.019531 189.601562 204.464844 189.957031 L 195.976562 194.960938 C 195.425781 195.316406 194.714844 195.316406 194.164062 194.960938 L 185.675781 189.957031 C 185.121094 189.601562 184.414062 189.601562 183.859375 189.957031 L 177.148438 193.898438 C 175.964844 194.605469 174.464844 193.78125 174.464844 192.398438 L 174.464844 186.800781 C 174.464844 188.183594 175.964844 189.011719 177.148438 188.300781 L 183.859375 184.359375 C 184.414062 184.003906 185.121094 184.003906 185.675781 184.359375 L 194.164062 189.363281 C 194.714844 189.71875 195.425781 189.71875 195.976562 189.363281 L 204.464844 184.359375 C 205.019531 184.003906 205.726562 184.003906 206.28125 184.359375 L 212.953125 188.300781 C 214.136719 189.011719 215.636719 188.183594 215.636719 186.761719 Z M 215.636719 186.761719 " fill-opacity="1" fill-rule="nonzero"/><path fill="#ffffff" d="M 174.464844 162.285156 L 215.636719 162.285156 L 215.636719 166.074219 L 174.464844 166.074219 Z M 174.464844 162.285156 " fill-opacity="0.2" fill-rule="nonzero"/><path fill="#102770" d="M 195.078125 196.316406 C 194.554688 196.316406 194.027344 196.171875 193.566406 195.875 L 185.113281 190.890625 C 184.890625 190.746094 184.648438 190.746094 184.457031 190.867188 L 177.707031 194.832031 C 176.808594 195.371094 175.71875 195.386719 174.808594 194.871094 C 173.902344 194.355469 173.363281 193.429688 173.363281 192.386719 L 173.363281 162.269531 C 173.363281 161.664062 173.855469 161.167969 174.464844 161.167969 L 215.636719 161.167969 C 216.246094 161.167969 216.738281 161.664062 216.738281 162.269531 L 216.738281 192.347656 C 216.738281 193.410156 216.195312 194.355469 215.28125 194.871094 C 214.375 195.386719 213.289062 195.371094 212.386719 194.828125 L 205.71875 190.890625 C 205.496094 190.746094 205.25 190.746094 205.0625 190.867188 L 196.539062 195.898438 C 196.105469 196.175781 195.59375 196.316406 195.078125 196.316406 Z M 184.757812 188.570312 C 185.28125 188.570312 185.8125 188.71875 186.273438 189.019531 L 194.722656 194 C 194.945312 194.144531 195.191406 194.144531 195.382812 194.023438 L 203.902344 188.996094 C 204.78125 188.429688 205.964844 188.429688 206.878906 189.015625 L 213.511719 192.9375 C 213.828125 193.125 214.09375 193.011719 214.195312 192.953125 C 214.320312 192.882812 214.53125 192.707031 214.53125 192.347656 L 214.53125 163.371094 L 175.566406 163.371094 L 175.566406 192.386719 C 175.566406 192.71875 175.773438 192.882812 175.894531 192.953125 C 175.996094 193.011719 176.269531 193.125 176.582031 192.9375 L 183.300781 188.992188 C 183.734375 188.714844 184.242188 188.570312 184.757812 188.570312 Z M 184.757812 188.570312 " fill-opacity="1" fill-rule="nonzero"/><path fill="#102770" d="M 137.863281 254.300781 C 137.582031 254.300781 137.300781 254.195312 137.085938 253.980469 L 132.964844 249.863281 L 128.839844 253.980469 C 128.410156 254.410156 127.710938 254.410156 127.28125 253.980469 C 126.851562 253.546875 126.851562 252.851562 127.28125 252.421875 L 132.183594 247.527344 C 132.613281 247.097656 133.3125 247.097656 133.742188 247.527344 L 138.644531 252.421875 C 139.074219 252.851562 139.074219 253.546875 138.644531 253.980469 C 138.429688 254.195312 138.148438 254.300781 137.863281 254.300781 Z M 137.863281 254.300781 " fill-opacity="1" fill-rule="nonzero"/><path fill="#102770" d="M 132.964844 268.101562 C 132.351562 268.101562 131.859375 267.609375 131.859375 267 L 131.859375 248.304688 C 131.859375 247.695312 132.351562 247.203125 132.964844 247.203125 C 133.574219 247.203125 134.066406 247.695312 134.066406 248.304688 L 134.066406 267 C 134.066406 267.609375 133.574219 268.101562 132.964844 268.101562 Z M 132.964844 268.101562 " fill-opacity="1" fill-rule="nonzero"/><path fill="#102770" d="M 153.226562 254.300781 C 152.945312 254.300781 152.660156 254.195312 152.445312 253.980469 L 148.324219 249.863281 L 144.203125 253.980469 C 143.773438 254.410156 143.074219 254.410156 142.644531 253.980469 C 142.210938 253.546875 142.210938 252.851562 142.644531 252.421875 L 147.542969 247.527344 C 147.976562 247.097656 148.671875 247.097656 149.105469 247.527344 L 154.007812 252.421875 C 154.4375 252.851562 154.4375 253.546875 154.007812 253.980469 C 153.789062 254.195312 153.507812 254.300781 153.226562 254.300781 Z M 153.226562 254.300781 " fill-opacity="1" fill-rule="nonzero"/><path fill="#102770" d="M 148.324219 268.101562 C 147.714844 268.101562 147.222656 267.609375 147.222656 267 L 147.222656 248.304688 C 147.222656 247.695312 147.714844 247.203125 148.324219 247.203125 C 148.933594 247.203125 149.425781 247.695312 149.425781 248.304688 L 149.425781 267 C 149.425781 267.609375 148.933594 268.101562 148.324219 268.101562 Z M 148.324219 268.101562 " fill-opacity="1" fill-rule="nonzero"/><path fill="#ed197b" d="M 119.707031 106.804688 C 119.707031 115.199219 108.105469 130.949219 102.570312 137.976562 C 101.113281 139.828125 98.335938 139.828125 96.878906 137.976562 C 91.339844 130.949219 79.738281 115.199219 79.738281 106.804688 C 79.738281 95.792969 88.695312 86.847656 99.722656 86.847656 C 110.753906 86.847656 119.707031 95.792969 119.707031 106.804688 Z M 119.707031 106.804688 " fill-opacity="1" fill-rule="nonzero"/><path fill="#ffffff" d="M 119.707031 106.804688 C 119.707031 107.113281 119.6875 107.402344 119.664062 107.730469 C 118.9375 97.378906 110.289062 89.183594 99.722656 89.183594 C 89.15625 89.183594 80.511719 97.378906 79.804688 107.730469 C 79.761719 107.402344 79.738281 107.113281 79.738281 106.804688 C 79.738281 95.792969 88.695312 86.847656 99.722656 86.847656 C 110.753906 86.847656 119.707031 95.792969 119.707031 106.804688 Z M 119.707031 106.804688 " fill-opacity="0.2" fill-rule="nonzero"/><path fill="#b61d79" d="M 119.707031 106.804688 C 119.707031 115.199219 108.105469 130.949219 102.570312 137.976562 C 101.113281 139.828125 98.335938 139.828125 96.878906 137.976562 C 91.339844 130.949219 79.738281 115.199219 79.738281 106.804688 C 79.738281 105.925781 79.804688 105.066406 79.914062 104.207031 C 81.347656 112.90625 91.738281 126.960938 96.878906 133.503906 C 98.335938 135.355469 101.113281 135.355469 102.570312 133.503906 C 107.707031 126.960938 118.097656 112.90625 119.53125 104.207031 C 119.644531 105.066406 119.707031 105.925781 119.707031 106.804688 Z M 119.707031 106.804688 " fill-opacity="1" fill-rule="nonzero"/><path fill="#ffffff" d="M 110.753906 106.808594 C 110.753906 107.53125 110.683594 108.246094 110.539062 108.957031 C 110.398438 109.664062 110.191406 110.351562 109.914062 111.023438 C 109.636719 111.691406 109.296875 112.324219 108.894531 112.925781 C 108.492188 113.527344 108.035156 114.082031 107.523438 114.59375 C 107.011719 115.105469 106.453125 115.5625 105.851562 115.964844 C 105.25 116.367188 104.613281 116.707031 103.945312 116.980469 C 103.273438 117.257812 102.585938 117.46875 101.875 117.609375 C 101.164062 117.75 100.449219 117.820312 99.722656 117.820312 C 99 117.820312 98.28125 117.75 97.570312 117.609375 C 96.863281 117.46875 96.171875 117.257812 95.503906 116.980469 C 94.832031 116.707031 94.199219 116.367188 93.597656 115.964844 C 92.992188 115.5625 92.4375 115.105469 91.925781 114.59375 C 91.414062 114.082031 90.957031 113.527344 90.554688 112.925781 C 90.152344 112.324219 89.8125 111.691406 89.535156 111.023438 C 89.257812 110.351562 89.046875 109.664062 88.90625 108.957031 C 88.765625 108.246094 88.695312 107.53125 88.695312 106.808594 C 88.695312 106.082031 88.765625 105.367188 88.90625 104.65625 C 89.046875 103.949219 89.257812 103.261719 89.535156 102.59375 C 89.8125 101.921875 90.152344 101.289062 90.554688 100.6875 C 90.957031 100.085938 91.414062 99.53125 91.925781 99.019531 C 92.4375 98.507812 92.992188 98.050781 93.597656 97.648438 C 94.199219 97.246094 94.832031 96.90625 95.503906 96.632812 C 96.171875 96.355469 96.863281 96.144531 97.570312 96.003906 C 98.28125 95.863281 99 95.792969 99.722656 95.792969 C 100.449219 95.792969 101.164062 95.863281 101.875 96.003906 C 102.585938 96.144531 103.273438 96.355469 103.945312 96.632812 C 104.613281 96.90625 105.25 97.246094 105.851562 97.648438 C 106.453125 98.050781 107.011719 98.507812 107.523438 99.019531 C 108.035156 99.53125 108.492188 100.085938 108.894531 100.6875 C 109.296875 101.289062 109.636719 101.921875 109.914062 102.59375 C 110.191406 103.261719 110.398438 103.949219 110.539062 104.65625 C 110.683594 105.367188 110.753906 106.082031 110.753906 106.808594 Z M 110.753906 106.808594 " fill-opacity="1" fill-rule="nonzero"/><path fill="#e6e7e8" d="M 110.753906 106.804688 C 110.753906 112.886719 105.8125 117.820312 99.722656 117.820312 C 94.207031 117.820312 89.621094 113.765625 88.828125 108.457031 C 90.765625 110.175781 93.328125 111.210938 96.105469 111.210938 C 102.195312 111.210938 107.136719 106.277344 107.136719 100.199219 C 107.136719 99.625 107.089844 99.074219 107.003906 98.546875 C 109.296875 100.550781 110.753906 103.5 110.753906 106.804688 Z M 110.753906 106.804688 " fill-opacity="1" fill-rule="nonzero"/><path fill="#102770" d="M 99.722656 140.460938 C 98.261719 140.460938 96.90625 139.800781 96.003906 138.652344 C 89.519531 130.410156 78.640625 115.3125 78.640625 106.804688 C 78.640625 95.195312 88.097656 85.75 99.722656 85.75 C 111.347656 85.75 120.808594 95.195312 120.808594 106.804688 C 120.808594 115.3125 109.929688 130.410156 103.445312 138.652344 C 102.539062 139.800781 101.183594 140.460938 99.722656 140.460938 Z M 99.722656 87.953125 C 89.316406 87.953125 80.84375 96.410156 80.84375 106.804688 C 80.84375 114.941406 92.660156 130.835938 97.738281 137.289062 C 98.222656 137.90625 98.945312 138.257812 99.722656 138.257812 C 100.503906 138.257812 101.226562 137.90625 101.710938 137.289062 C 106.789062 130.835938 118.601562 114.945312 118.601562 106.804688 C 118.601562 96.410156 110.132812 87.953125 99.722656 87.953125 Z M 99.722656 87.953125 " fill-opacity="1" fill-rule="nonzero"/><path fill="#102770" d="M 99.722656 118.921875 C 93.035156 118.921875 87.589844 113.488281 87.589844 106.804688 C 87.589844 100.125 93.035156 94.691406 99.722656 94.691406 C 106.414062 94.691406 111.855469 100.125 111.855469 106.804688 C 111.855469 113.488281 106.414062 118.921875 99.722656 118.921875 Z M 99.722656 96.894531 C 94.25 96.894531 89.796875 101.339844 89.796875 106.804688 C 89.796875 112.273438 94.25 116.71875 99.722656 116.71875 C 105.199219 116.71875 109.648438 112.273438 109.648438 106.804688 C 109.648438 101.339844 105.199219 96.894531 99.722656 96.894531 Z M 99.722656 96.894531 " fill-opacity="1" fill-rule="nonzero"/><path fill="#fe5722" d="M 268.285156 86.480469 C 268.285156 94.875 256.683594 110.625 251.148438 117.652344 C 249.691406 119.503906 246.914062 119.503906 245.457031 117.652344 C 239.917969 110.625 228.316406 94.875 228.316406 86.480469 C 228.316406 75.46875 237.273438 66.523438 248.300781 66.523438 C 259.332031 66.523438 268.285156 75.46875 268.285156 86.480469 Z M 268.285156 86.480469 " fill-opacity="1" fill-rule="nonzero"/><path fill="#ffffff" d="M 268.285156 86.480469 C 268.285156 86.789062 268.265625 87.078125 268.242188 87.40625 C 267.515625 77.054688 258.867188 68.859375 248.300781 68.859375 C 237.734375 68.859375 229.089844 77.054688 228.382812 87.40625 C 228.339844 87.078125 228.316406 86.789062 228.316406 86.480469 C 228.316406 75.46875 237.273438 66.523438 248.300781 66.523438 C 259.332031 66.523438 268.285156 75.46875 268.285156 86.480469 Z M 268.285156 86.480469 " fill-opacity="0.2" fill-rule="nonzero"/><path fill="#d1432f" d="M 268.285156 86.480469 C 268.285156 94.875 256.683594 110.625 251.148438 117.652344 C 249.691406 119.503906 246.914062 119.503906 245.457031 117.652344 C 239.917969 110.625 228.316406 94.875 228.316406 86.480469 C 228.316406 85.601562 228.382812 84.742188 228.492188 83.882812 C 229.925781 92.582031 240.316406 106.636719 245.457031 113.179688 C 246.914062 115.03125 249.691406 115.03125 251.148438 113.179688 C 256.289062 106.636719 266.675781 92.582031 268.109375 83.882812 C 268.222656 84.742188 268.285156 85.601562 268.285156 86.480469 Z M 268.285156 86.480469 " fill-opacity="1" fill-rule="nonzero"/><path fill="#ffffff" d="M 259.332031 86.480469 C 259.332031 87.203125 259.257812 87.921875 259.117188 88.628906 C 258.976562 89.339844 258.769531 90.027344 258.492188 90.695312 C 258.214844 91.363281 257.875 92 257.472656 92.601562 C 257.070312 93.203125 256.613281 93.757812 256.101562 94.269531 C 255.585938 94.78125 255.03125 95.238281 254.429688 95.640625 C 253.824219 96.042969 253.191406 96.378906 252.519531 96.65625 C 251.851562 96.933594 251.164062 97.144531 250.453125 97.285156 C 249.742188 97.425781 249.023438 97.496094 248.300781 97.496094 C 247.578125 97.496094 246.859375 97.425781 246.148438 97.285156 C 245.4375 97.144531 244.75 96.933594 244.078125 96.65625 C 243.410156 96.378906 242.773438 96.042969 242.171875 95.640625 C 241.570312 95.238281 241.015625 94.78125 240.5 94.269531 C 239.988281 93.757812 239.53125 93.203125 239.128906 92.601562 C 238.726562 92 238.386719 91.363281 238.109375 90.695312 C 237.832031 90.027344 237.625 89.339844 237.484375 88.628906 C 237.34375 87.921875 237.269531 87.203125 237.269531 86.480469 C 237.269531 85.757812 237.34375 85.042969 237.484375 84.332031 C 237.625 83.625 237.832031 82.933594 238.109375 82.265625 C 238.386719 81.597656 238.726562 80.964844 239.128906 80.363281 C 239.53125 79.761719 239.988281 79.203125 240.5 78.695312 C 241.015625 78.183594 241.570312 77.726562 242.171875 77.324219 C 242.773438 76.921875 243.410156 76.582031 244.078125 76.304688 C 244.75 76.027344 245.4375 75.820312 246.148438 75.679688 C 246.859375 75.539062 247.578125 75.46875 248.300781 75.46875 C 249.023438 75.46875 249.742188 75.539062 250.453125 75.679688 C 251.164062 75.820312 251.851562 76.027344 252.519531 76.304688 C 253.191406 76.582031 253.824219 76.921875 254.429688 77.324219 C 255.03125 77.726562 255.585938 78.183594 256.101562 78.695312 C 256.613281 79.203125 257.070312 79.761719 257.472656 80.363281 C 257.875 80.964844 258.214844 81.597656 258.492188 82.265625 C 258.769531 82.933594 258.976562 83.625 259.117188 84.332031 C 259.257812 85.042969 259.332031 85.757812 259.332031 86.480469 Z M 259.332031 86.480469 " fill-opacity="1" fill-rule="nonzero"/><path fill="#e6e7e8" d="M 259.332031 86.480469 C 259.332031 92.5625 254.390625 97.496094 248.300781 97.496094 C 242.785156 97.496094 238.199219 93.441406 237.40625 88.132812 C 239.34375 89.851562 241.90625 90.886719 244.683594 90.886719 C 250.773438 90.886719 255.714844 85.953125 255.714844 79.875 C 255.714844 79.300781 255.667969 78.75 255.582031 78.222656 C 257.875 80.226562 259.332031 83.175781 259.332031 86.480469 Z M 259.332031 86.480469 " fill-opacity="1" fill-rule="nonzero"/><path fill="#102770" d="M 248.300781 120.136719 C 246.839844 120.136719 245.484375 119.476562 244.582031 118.328125 C 238.097656 110.085938 227.21875 94.988281 227.21875 86.480469 C 227.21875 74.871094 236.675781 65.425781 248.300781 65.425781 C 259.925781 65.425781 269.386719 74.871094 269.386719 86.480469 C 269.386719 94.988281 258.507812 110.085938 252.023438 118.328125 C 251.117188 119.476562 249.761719 120.136719 248.300781 120.136719 Z M 248.300781 67.628906 C 237.894531 67.628906 229.425781 76.085938 229.425781 86.480469 C 229.425781 94.617188 241.238281 110.511719 246.316406 116.964844 C 246.800781 117.582031 247.523438 117.933594 248.300781 117.933594 C 249.082031 117.933594 249.804688 117.582031 250.289062 116.964844 C 255.367188 110.511719 267.179688 94.621094 267.179688 86.480469 C 267.179688 76.085938 258.710938 67.628906 248.300781 67.628906 Z M 248.300781 67.628906 " fill-opacity="1" fill-rule="nonzero"/><path fill="#102770" d="M 248.300781 98.597656 C 241.613281 98.597656 236.167969 93.164062 236.167969 86.480469 C 236.167969 79.800781 241.613281 74.367188 248.300781 74.367188 C 254.992188 74.367188 260.433594 79.800781 260.433594 86.480469 C 260.433594 93.164062 254.992188 98.597656 248.300781 98.597656 Z M 248.300781 76.570312 C 242.828125 76.570312 238.375 81.015625 238.375 86.480469 C 238.375 91.949219 242.828125 96.394531 248.300781 96.394531 C 253.777344 96.394531 258.230469 91.949219 258.230469 86.480469 C 258.230469 81.015625 253.777344 76.570312 248.300781 76.570312 Z M 248.300781 76.570312 " fill-opacity="1" fill-rule="nonzero"/><path fill="#ffffff" d="M 130.667969 183.410156 C 130.667969 188.097656 131.273438 191.898438 129.175781 191.898438 C 127.074219 191.898438 125.375 188.097656 125.375 183.410156 C 125.375 178.722656 127.074219 174.925781 129.175781 174.925781 C 131.273438 174.925781 130.667969 178.722656 130.667969 183.410156 Z M 130.667969 183.410156 " fill-opacity="0.2" fill-rule="nonzero"/><path fill="#ffffff" d="M 130.667969 198.074219 C 130.667969 200.082031 131.273438 201.710938 129.175781 201.710938 C 127.074219 201.710938 125.375 200.082031 125.375 198.074219 C 125.375 196.066406 127.074219 194.441406 129.175781 194.441406 C 131.273438 194.441406 130.667969 196.066406 130.667969 198.074219 Z M 130.667969 198.074219 " fill-opacity="0.2" fill-rule="nonzero"/><path fill="#ffffff" d="M 112.101562 271.039062 C 112.101562 275.722656 112.707031 279.523438 110.609375 279.523438 C 108.511719 279.523438 106.808594 275.722656 106.808594 271.039062 C 106.808594 266.351562 108.511719 262.550781 110.609375 262.550781 C 112.707031 262.550781 112.101562 266.351562 112.101562 271.039062 Z M 112.101562 271.039062 " fill-opacity="0.2" fill-rule="nonzero"/><path fill="#ffffff" d="M 112.101562 285.699219 C 112.101562 287.707031 112.707031 289.335938 110.609375 289.335938 C 108.511719 289.335938 106.808594 287.707031 106.808594 285.699219 C 106.808594 283.691406 108.511719 282.066406 110.609375 282.066406 C 112.707031 282.066406 112.101562 283.691406 112.101562 285.699219 Z M 112.101562 285.699219 " fill-opacity="0.2" fill-rule="nonzero"/><g clip-path="url(#276091d7c1)"><path fill="#ffca28" d="M 59.191406 57.75 C 58.582031 57.75 58.089844 57.257812 58.089844 56.648438 L 58.089844 46.355469 C 58.089844 45.746094 58.582031 45.253906 59.191406 45.253906 C 59.800781 45.253906 60.292969 45.746094 60.292969 46.355469 L 60.292969 56.648438 C 60.292969 57.257812 59.800781 57.75 59.191406 57.75 Z M 59.191406 57.75 " fill-opacity="1" fill-rule="nonzero"/></g><path fill="#ffca28" d="M 64.347656 52.601562 L 54.03125 52.597656 C 53.421875 52.597656 52.929688 52.101562 52.929688 51.496094 C 52.929688 50.886719 53.425781 50.394531 54.03125 50.394531 C 54.03125 50.394531 54.03125 50.394531 54.035156 50.394531 L 64.347656 50.398438 C 64.957031 50.402344 65.449219 50.894531 65.449219 51.503906 C 65.449219 52.109375 64.957031 52.601562 64.347656 52.601562 Z M 64.347656 52.601562 " fill-opacity="1" fill-rule="nonzero"/><path fill="#ed197b" d="M 71.855469 76.078125 C 68.640625 76.078125 66.019531 73.460938 66.019531 70.25 C 66.019531 67.035156 68.640625 64.417969 71.855469 64.417969 C 75.074219 64.417969 77.695312 67.035156 77.695312 70.25 C 77.695312 73.460938 75.074219 76.078125 71.855469 76.078125 Z M 71.855469 66.621094 C 69.855469 66.621094 68.226562 68.25 68.226562 70.25 C 68.226562 72.246094 69.855469 73.875 71.855469 73.875 C 73.859375 73.875 75.488281 72.246094 75.488281 70.25 C 75.488281 68.25 73.859375 66.621094 71.855469 66.621094 Z M 71.855469 66.621094 " fill-opacity="1" fill-rule="nonzero"/><path fill="#2ecc71" d="M 50.039062 92.078125 C 48.527344 92.078125 47.304688 90.855469 47.304688 89.34375 C 47.304688 87.835938 48.527344 86.613281 50.039062 86.613281 C 51.550781 86.613281 52.773438 87.835938 52.773438 89.34375 C 52.773438 90.855469 51.550781 92.078125 50.039062 92.078125 " fill-opacity="1" fill-rule="nonzero"/><path fill="#22a7f0" d="M 49.859375 116.894531 C 49.859375 117.378906 49.765625 117.84375 49.582031 118.289062 C 49.398438 118.734375 49.132812 119.128906 48.789062 119.472656 C 48.449219 119.8125 48.054688 120.078125 47.605469 120.261719 C 47.160156 120.445312 46.695312 120.539062 46.210938 120.539062 C 45.726562 120.539062 45.261719 120.445312 44.816406 120.261719 C 44.367188 120.078125 43.972656 119.8125 43.632812 119.472656 C 43.289062 119.128906 43.023438 118.734375 42.839844 118.289062 C 42.65625 117.84375 42.5625 117.378906 42.5625 116.894531 C 42.5625 116.414062 42.65625 115.949219 42.839844 115.5 C 43.023438 115.054688 43.289062 114.660156 43.632812 114.320312 C 43.972656 113.976562 44.367188 113.714844 44.816406 113.53125 C 45.261719 113.34375 45.726562 113.253906 46.210938 113.253906 C 46.695312 113.253906 47.160156 113.34375 47.605469 113.53125 C 48.054688 113.714844 48.449219 113.976562 48.789062 114.320312 C 49.132812 114.660156 49.398438 115.054688 49.582031 115.5 C 49.765625 115.949219 49.859375 116.414062 49.859375 116.894531 Z M 49.859375 116.894531 " fill-opacity="1" fill-rule="nonzero"/><path fill="#22a7f0" d="M 293.59375 91.316406 C 292.992188 91.316406 292.5 90.835938 292.492188 90.234375 L 292.332031 79.9375 C 292.324219 79.332031 292.808594 78.828125 293.417969 78.820312 C 293.425781 78.820312 293.429688 78.820312 293.433594 78.820312 C 294.035156 78.820312 294.527344 79.300781 294.539062 79.90625 L 294.699219 90.199219 C 294.707031 90.804688 294.21875 91.308594 293.613281 91.316406 C 293.605469 91.316406 293.601562 91.316406 293.59375 91.316406 Z M 293.59375 91.316406 " fill-opacity="1" fill-rule="nonzero"/><path fill="#22a7f0" d="M 288.359375 86.25 C 287.757812 86.25 287.265625 85.769531 287.257812 85.164062 C 287.25 84.558594 287.734375 84.058594 288.34375 84.046875 L 298.65625 83.894531 C 299.203125 83.90625 299.769531 84.371094 299.777344 84.980469 C 299.785156 85.585938 299.300781 86.089844 298.691406 86.097656 L 288.375 86.25 C 288.371094 86.25 288.367188 86.25 288.359375 86.25 Z M 288.359375 86.25 " fill-opacity="1" fill-rule="nonzero"/><path fill="#259a71" d="M 314.699219 110.191406 C 311.9375 110.191406 309.476562 108.21875 308.960938 105.410156 C 308.382812 102.246094 310.488281 99.203125 313.65625 98.628906 C 315.191406 98.347656 316.742188 98.679688 318.023438 99.566406 C 319.304688 100.453125 320.164062 101.785156 320.445312 103.316406 C 320.726562 104.847656 320.390625 106.394531 319.503906 107.675781 C 318.617188 108.957031 317.285156 109.816406 315.75 110.09375 C 315.398438 110.160156 315.046875 110.191406 314.699219 110.191406 Z M 314.710938 100.734375 C 314.492188 100.734375 314.273438 100.753906 314.050781 100.792969 C 312.082031 101.152344 310.773438 103.046875 311.132812 105.011719 C 311.492188 106.980469 313.386719 108.292969 315.355469 107.929688 C 316.308594 107.753906 317.140625 107.21875 317.691406 106.421875 C 318.242188 105.625 318.449219 104.664062 318.273438 103.710938 C 318.101562 102.757812 317.566406 101.929688 316.769531 101.378906 C 316.15625 100.953125 315.441406 100.734375 314.710938 100.734375 Z M 314.710938 100.734375 " fill-opacity="1" fill-rule="nonzero"/><path fill="#ed197b" d="M 293.515625 58.886719 C 293.515625 59.25 293.449219 59.597656 293.308594 59.933594 C 293.167969 60.265625 292.972656 60.5625 292.714844 60.820312 C 292.460938 61.074219 292.164062 61.273438 291.828125 61.410156 C 291.492188 61.550781 291.144531 61.617188 290.78125 61.617188 C 290.417969 61.617188 290.070312 61.550781 289.734375 61.410156 C 289.398438 61.273438 289.105469 61.074219 288.847656 60.820312 C 288.589844 60.5625 288.394531 60.265625 288.253906 59.933594 C 288.117188 59.597656 288.046875 59.25 288.046875 58.886719 C 288.046875 58.523438 288.117188 58.175781 288.253906 57.84375 C 288.394531 57.507812 288.589844 57.210938 288.847656 56.957031 C 289.105469 56.699219 289.398438 56.503906 289.734375 56.363281 C 290.070312 56.226562 290.417969 56.15625 290.78125 56.15625 C 291.144531 56.15625 291.492188 56.226562 291.828125 56.363281 C 292.164062 56.503906 292.460938 56.699219 292.714844 56.957031 C 292.972656 57.210938 293.167969 57.507812 293.308594 57.84375 C 293.449219 58.175781 293.515625 58.523438 293.515625 58.886719 Z M 293.515625 58.886719 " fill-opacity="1" fill-rule="nonzero"/><path fill="#fe5722" d="M 266.945312 50.769531 C 266.945312 51.058594 266.917969 51.34375 266.863281 51.628906 C 266.804688 51.914062 266.722656 52.1875 266.609375 52.457031 C 266.5 52.722656 266.363281 52.976562 266.203125 53.21875 C 266.042969 53.460938 265.859375 53.683594 265.652344 53.886719 C 265.449219 54.09375 265.222656 54.273438 264.984375 54.4375 C 264.742188 54.597656 264.488281 54.734375 264.21875 54.84375 C 263.953125 54.953125 263.675781 55.039062 263.390625 55.09375 C 263.105469 55.152344 262.820312 55.179688 262.527344 55.179688 C 262.238281 55.179688 261.953125 55.152344 261.667969 55.09375 C 261.382812 55.039062 261.105469 54.953125 260.835938 54.84375 C 260.570312 54.734375 260.316406 54.597656 260.074219 54.4375 C 259.832031 54.273438 259.609375 54.09375 259.40625 53.886719 C 259.199219 53.683594 259.015625 53.460938 258.855469 53.21875 C 258.695312 52.976562 258.558594 52.722656 258.445312 52.457031 C 258.335938 52.1875 258.25 51.914062 258.195312 51.628906 C 258.136719 51.34375 258.109375 51.058594 258.109375 50.769531 C 258.109375 50.476562 258.136719 50.191406 258.195312 49.90625 C 258.25 49.621094 258.335938 49.347656 258.445312 49.078125 C 258.558594 48.8125 258.695312 48.558594 258.855469 48.316406 C 259.015625 48.074219 259.199219 47.851562 259.40625 47.648438 C 259.609375 47.441406 259.832031 47.261719 260.074219 47.097656 C 260.316406 46.9375 260.570312 46.800781 260.835938 46.691406 C 261.105469 46.582031 261.382812 46.496094 261.667969 46.441406 C 261.953125 46.382812 262.238281 46.355469 262.527344 46.355469 C 262.820312 46.355469 263.105469 46.382812 263.390625 46.441406 C 263.675781 46.496094 263.953125 46.582031 264.21875 46.691406 C 264.488281 46.800781 264.742188 46.9375 264.984375 47.097656 C 265.222656 47.261719 265.449219 47.441406 265.652344 47.648438 C 265.859375 47.851562 266.042969 48.074219 266.203125 48.316406 C 266.363281 48.558594 266.5 48.8125 266.609375 49.078125 C 266.722656 49.347656 266.804688 49.621094 266.863281 49.90625 C 266.917969 50.191406 266.945312 50.476562 266.945312 50.769531 Z M 266.945312 50.769531 " fill-opacity="1" fill-rule="nonzero"/></svg>