<svg xmlns="http://www.w3.org/2000/svg" xmlns:xlink="http://www.w3.org/1999/xlink" width="500" zoomAndPan="magnify" viewBox="0 0 375 374.999991" height="500" preserveAspectRatio="xMidYMid meet" version="1.0"><defs><clipPath id="269607a57b"><path d="M 70 166 L 320 166 L 320 337.5 L 70 337.5 Z M 70 166 " clip-rule="nonzero"/></clipPath></defs><g clip-path="url(#269607a57b)"><path fill="#0e7658" d="M 317 284.746094 C 316.878906 284.058594 316.753906 283.371094 316.621094 282.679688 C 315.0625 274.382812 312.964844 265.84375 310.726562 257.777344 C 304.566406 235.601562 296.566406 216.453125 296.566406 216.453125 C 295.855469 214.960938 293.824219 207.78125 293.824219 207.78125 C 293.824219 207.78125 280.738281 183.125 279.089844 183.125 C 277.4375 183.125 269.179688 180.839844 269.179688 180.839844 L 252.285156 171.433594 L 248.992188 172.066406 L 234.753906 166.476562 L 191.375 172.007812 L 162.726562 172.101562 C 162.726562 172.101562 126.101562 178.152344 116.175781 198.441406 C 105 217.25 102.457031 219.28125 102.457031 219.28125 C 102.457031 219.28125 85.355469 213.992188 81.117188 214.359375 C 74.511719 235.707031 54.695312 315.363281 97.882812 315.363281 C 117.253906 315.363281 130.078125 301.351562 138.339844 285.902344 C 138.339844 285.933594 138.34375 285.964844 138.34375 285.996094 C 138.351562 286.097656 138.445312 286.238281 138.367188 286.304688 C 137.972656 286.632812 141.421875 332.042969 143.519531 332.898438 C 147.980469 334.726562 244.789062 336.902344 250.886719 333.089844 C 251.992188 332.402344 251.515625 328.542969 252.582031 323.011719 C 261.308594 329.53125 269.988281 333.679688 278.050781 335.78125 C 279.839844 336.25 281.601562 336.613281 283.328125 336.882812 C 286.777344 337.421875 290.082031 337.570312 293.1875 337.359375 C 306.398438 336.464844 316.070312 329.066406 318.402344 317.394531 C 320.117188 308.816406 319.203125 297.125 317 284.746094 Z M 257.367188 280.222656 L 257.875 265.988281 L 263.210938 282.761719 Z M 257.367188 280.222656 " fill-opacity="1" fill-rule="nonzero"/></g><path fill="#c45b52" d="M 296.785156 213.628906 C 296.761719 214.585938 296.679688 215.523438 296.566406 216.453125 C 289.664062 204.65625 283.851562 193.929688 276.800781 189.351562 C 282.007812 214.136719 278.652344 235.347656 273.261719 247.78125 C 269.019531 257.570312 258.382812 260.523438 252.683594 258.082031 C 248.429688 254.460938 248.304688 248.800781 248.625 245.703125 C 247.730469 250.5 244.777344 257.609375 238.820312 255.820312 C 231.199219 253.53125 236.40625 232.054688 239.457031 210.324219 C 242.503906 188.589844 234.273438 172.101562 234.273438 172.101562 C 234.273438 172.101562 222.054688 170.417969 178.863281 169.402344 C 144.800781 168.597656 144.769531 119.496094 146.855469 98.613281 C 151.761719 71.085938 161.828125 54.386719 179.921875 46.808594 C 202.066406 37.535156 219.703125 43.691406 219.703125 43.691406 C 219.703125 43.691406 241.894531 44.550781 252.488281 67.558594 C 259.714844 83.246094 260.664062 103.207031 260.160156 123.648438 C 258.636719 185.667969 297.925781 171.707031 296.785156 213.628906 Z M 296.785156 213.628906 C 296.761719 214.585938 296.679688 215.523438 296.566406 216.453125 C 289.664062 204.65625 283.851562 193.929688 276.800781 189.351562 C 282.007812 214.136719 278.652344 235.347656 273.261719 247.78125 C 269.019531 257.570312 258.382812 260.523438 252.683594 258.082031 C 248.429688 254.460938 248.304688 248.800781 248.625 245.703125 C 247.730469 250.5 244.777344 257.609375 238.820312 255.820312 C 231.199219 253.53125 236.40625 232.054688 239.457031 210.324219 C 242.503906 188.589844 234.273438 172.101562 234.273438 172.101562 C 234.273438 172.101562 222.054688 170.417969 178.863281 169.402344 C 144.800781 168.597656 144.769531 119.496094 146.855469 98.613281 C 151.761719 71.085938 161.828125 54.386719 179.921875 46.808594 C 202.066406 37.535156 219.703125 43.691406 219.703125 43.691406 C 219.703125 43.691406 241.894531 44.550781 252.488281 67.558594 C 259.714844 83.246094 260.664062 103.207031 260.160156 123.648438 C 258.636719 185.667969 297.925781 171.707031 296.785156 213.628906 Z M 296.785156 213.628906 " fill-opacity="1" fill-rule="nonzero"/><path fill="#feac7c" d="M 129.449219 177.34375 C 128.851562 182.890625 128.351562 188.359375 127.925781 190.816406 C 127.109375 195.519531 113.035156 211.148438 110.679688 215.476562 C 110.210938 216.335938 109.300781 218.484375 108.886719 219.472656 C 94.742188 220.425781 81.308594 213.871094 81.308594 213.871094 L 82.640625 208.371094 C 82.640625 208.371094 84.300781 180.488281 86.785156 171.050781 C 87.605469 167.949219 89.898438 164.238281 90.976562 163.570312 C 92.132812 162.855469 95.78125 161.679688 96.808594 165.53125 C 96.824219 165.757812 96.832031 165.972656 96.84375 166.195312 C 97.398438 164.011719 98.832031 162.707031 100.21875 161.949219 C 101.496094 161.25 103.839844 161.1875 105.160156 163.746094 C 105.554688 164.503906 105.574219 165.410156 105.523438 166.261719 C 105.507812 166.566406 105.484375 166.859375 105.464844 167.15625 C 105.464844 167.15625 105.761719 154.46875 112.175781 153.578125 C 113.851562 153.347656 115.660156 155.003906 117.320312 157.585938 C 118.816406 154.035156 120 152.105469 121.574219 150.527344 C 124.339844 147.761719 130.582031 140.582031 132.246094 145.191406 C 133.898438 149.765625 125.867188 157.316406 123.609375 164 C 123.003906 165.78125 122.527344 167.414062 122.148438 168.855469 C 122.421875 169.878906 122.625 170.828125 122.75 171.65625 C 128.175781 161.960938 132.746094 162.023438 133.769531 164.125 C 134.914062 166.476562 130 172.273438 129.449219 177.34375 Z M 242.886719 265.511719 C 241.457031 260.269531 235.742188 255.40625 227.335938 252.058594 C 225.175781 251.195312 222.886719 250.792969 220.957031 250.472656 L 220.847656 257.089844 C 220.675781 257.011719 220.453125 256.871094 220.214844 256.699219 C 212.671875 251.019531 205.710938 246.804688 199.0625 242.601562 C 194.234375 239.554688 183.363281 238.527344 191.949219 246.671875 C 181.753906 239.804688 178.339844 247.117188 187.554688 254.148438 C 179.746094 249.71875 179.796875 259.253906 189.121094 266.058594 C 184.144531 263.691406 180.578125 267.59375 193.070312 278.65625 C 207.488281 291.421875 234.121094 301.828125 234.121094 301.828125 L 247.535156 277.648438 C 247.535156 277.648438 244.796875 272.515625 242.886719 265.511719 Z M 244.964844 110.605469 C 242.804688 104.921875 237.84375 108.09375 237.84375 108.09375 C 228.636719 107.910156 220.128906 86.035156 219.378906 72.410156 C 219.359375 71.992188 218.832031 71.871094 218.632812 72.238281 C 208.398438 91.273438 178.84375 108.328125 168.632812 98.789062 C 168.632812 98.789062 164.457031 94.28125 160.863281 99.179688 C 157.542969 103.699219 157.53125 114.691406 166.664062 115.480469 C 167.800781 123.84375 172.195312 134.164062 180.558594 139.582031 C 180.816406 139.746094 181.078125 139.914062 181.34375 140.078125 L 181.34375 159.0625 C 181.34375 163.257812 178.601562 166.960938 174.585938 168.183594 L 162.726562 172.101562 C 165.070312 177.738281 169.320312 182.089844 174.09375 185.410156 C 188.777344 195.625 208.21875 195.625 222.902344 185.410156 C 227.675781 182.089844 231.929688 177.738281 234.273438 172.101562 L 219.933594 167.277344 C 217.683594 166.59375 216.148438 164.519531 216.148438 162.167969 L 216.148438 143.355469 C 223.808594 140.148438 229.199219 133.019531 233.398438 124.164062 C 240.242188 127.609375 247.097656 116.214844 244.964844 110.605469 Z M 244.964844 110.605469 " fill-opacity="1" fill-rule="nonzero"/><path fill="#f3d4b7" d="M 154.972656 125.832031 L 101.707031 204.246094 L 94.996094 208.390625 C 94.542969 208.667969 93.976562 208.261719 94.09375 207.742188 L 95.824219 200.246094 L 107.492188 183.066406 C 107.910156 183.507812 108.410156 183.664062 109 183.316406 C 110.636719 182.355469 110.691406 180.140625 110.507812 178.628906 L 115.414062 171.402344 C 115.449219 171.445312 115.476562 171.488281 115.511719 171.527344 C 118.347656 175.105469 123.050781 174.878906 123.066406 172.195312 C 123.082031 170 121.964844 166.597656 120.75 163.550781 L 149.089844 121.832031 C 150.191406 120.207031 152.40625 119.785156 154.027344 120.890625 C 155.652344 121.992188 156.074219 124.207031 154.972656 125.832031 Z M 193.070312 278.65625 C 180.578125 267.59375 184.144531 263.691406 189.121094 266.058594 C 179.796875 259.253906 179.746094 249.71875 187.554688 254.148438 C 178.339844 247.117188 181.753906 239.804688 191.949219 246.671875 C 183.363281 238.527344 194.234375 239.554688 199.0625 242.601562 C 205.710938 246.804688 212.671875 251.019531 220.214844 256.699219 C 220.445312 256.863281 220.652344 256.996094 220.824219 257.078125 L 221.292969 211.847656 L 152.1875 212.355469 L 153.457031 308.941406 L 220.273438 309.960938 L 220.421875 295.707031 C 211.152344 291.101562 200.191406 284.960938 193.070312 278.65625 Z M 193.070312 278.65625 " fill-opacity="1" fill-rule="nonzero"/><path fill="#000000" d="M 197.539062 133.96875 C 197.695312 134 197.851562 134.011719 198.007812 134.011719 C 199.660156 134.011719 201.214844 132.351562 201.667969 129.996094 L 201.667969 129.992188 C 202.167969 127.414062 201.132812 125.117188 199.3125 124.765625 C 198.386719 124.585938 197.441406 124.945312 196.644531 125.769531 C 195.929688 126.511719 195.410156 127.566406 195.183594 128.742188 C 194.6875 131.320312 195.71875 133.617188 197.539062 133.96875 Z M 196.617188 129.019531 C 196.789062 128.132812 197.179688 127.316406 197.695312 126.78125 C 197.921875 126.546875 198.355469 126.183594 198.851562 126.183594 C 198.910156 126.183594 198.972656 126.1875 199.035156 126.199219 C 199.894531 126.367188 200.59375 127.851562 200.234375 129.714844 C 199.910156 131.402344 198.773438 132.710938 197.816406 132.535156 C 196.960938 132.367188 196.257812 130.882812 196.617188 129.019531 Z M 117.402344 156.183594 C 117.042969 156.367188 116.898438 156.804688 117.082031 157.164062 C 117.132812 157.269531 122.367188 167.625 122.335938 172.191406 C 122.332031 172.75 122.03125 173.136719 121.433594 173.339844 C 120.082031 173.8125 117.746094 173.171875 116.082031 171.074219 C 113.621094 167.976562 112.023438 163.332031 112.007812 163.289062 C 111.878906 162.90625 111.464844 162.699219 111.082031 162.832031 C 110.699219 162.960938 110.496094 163.375 110.625 163.757812 C 110.675781 163.902344 111.527344 166.378906 112.976562 168.988281 L 112.40625 172.917969 C 112.347656 173.316406 112.625 173.6875 113.023438 173.746094 C 113.058594 173.75 113.09375 173.753906 113.128906 173.753906 C 113.484375 173.753906 113.796875 173.492188 113.851562 173.128906 L 114.167969 170.933594 C 114.414062 171.292969 114.671875 171.648438 114.9375 171.984375 C 116.375 173.792969 118.222656 174.707031 119.84375 174.902344 C 118.859375 176.597656 116.566406 180.675781 115.515625 183.859375 L 113.941406 186.222656 C 114.253906 186.097656 114.558594 185.980469 114.839844 185.871094 C 115.449219 185.636719 115.972656 185.433594 116.375 185.257812 C 116.570312 185.171875 116.71875 185.007812 116.78125 184.804688 C 117.976562 180.929688 121.53125 174.917969 121.566406 174.855469 C 121.578125 174.839844 121.578125 174.820312 121.585938 174.800781 C 121.695312 174.773438 121.808594 174.757812 121.910156 174.722656 C 123.085938 174.316406 123.789062 173.375 123.796875 172.203125 C 123.832031 167.28125 118.605469 156.941406 118.382812 156.503906 C 118.199219 156.144531 117.761719 156.003906 117.402344 156.183594 Z M 110.914062 182.261719 C 112.613281 179.058594 107.5 167.191406 106.460938 164.847656 C 106.296875 164.476562 105.863281 164.308594 105.496094 164.476562 C 105.128906 164.640625 104.960938 165.070312 105.125 165.441406 C 107.425781 170.621094 110.683594 179.582031 109.625 181.574219 C 109.265625 182.253906 108.554688 182.335938 108.027344 182.289062 C 105.796875 182.082031 102.605469 179.335938 100.867188 173.789062 C 100.832031 173.667969 100.761719 173.574219 100.675781 173.492188 C 99.597656 170.347656 98.339844 167.265625 97.484375 165.246094 C 97.324219 164.875 96.894531 164.703125 96.523438 164.859375 C 96.152344 165.015625 95.980469 165.445312 96.136719 165.816406 C 99.945312 174.78125 102.28125 183.074219 101.234375 183.925781 C 100.441406 184.570312 99.660156 184.769531 98.851562 184.53125 C 95.695312 183.601562 92.773438 176.523438 91.910156 173.878906 C 91.785156 173.492188 91.375 173.28125 90.988281 173.40625 C 90.605469 173.53125 90.398438 173.945312 90.519531 174.328125 C 90.65625 174.746094 93.902344 184.597656 98.4375 185.933594 C 98.800781 186.042969 99.160156 186.09375 99.519531 186.09375 C 100.425781 186.09375 101.308594 185.75 102.15625 185.058594 C 102.980469 184.390625 103 182.597656 102.578125 180.308594 C 104.304688 182.46875 106.25 183.59375 107.890625 183.746094 C 108.019531 183.757812 108.148438 183.761719 108.269531 183.761719 C 109.449219 183.761719 110.402344 183.226562 110.914062 182.261719 Z M 201.960938 252.765625 C 199.714844 251.421875 197.488281 250.058594 195.34375 248.554688 C 193.671875 247.378906 192.039062 246.144531 190.433594 244.882812 C 189.699219 244.308594 188.660156 245.335938 189.398438 245.914062 C 191.988281 247.949219 194.628906 249.914062 197.402344 251.6875 C 199.707031 253.160156 202.078125 254.519531 204.402344 255.953125 C 206.332031 257.144531 208.238281 258.375 210.125 259.628906 C 210.910156 260.152344 211.644531 258.886719 210.863281 258.367188 C 207.941406 256.425781 204.96875 254.570312 201.960938 252.765625 Z M 205.414062 265.75 C 200.074219 262.460938 194.957031 258.890625 189.910156 255.171875 C 188.269531 253.964844 186.625 252.761719 184.980469 251.566406 C 184.214844 251.015625 183.488281 252.28125 184.242188 252.828125 C 189.304688 256.5 194.273438 260.304688 199.507812 263.734375 C 201.214844 264.855469 202.941406 265.941406 204.679688 267.011719 C 205.480469 267.503906 206.214844 266.242188 205.414062 265.75 Z M 204.773438 275.699219 C 202.058594 274.277344 199.445312 272.679688 196.976562 270.859375 C 194.585938 269.097656 192.285156 267.21875 189.902344 265.453125 C 189.148438 264.890625 188.417969 266.160156 189.164062 266.714844 C 191.550781 268.484375 193.847656 270.359375 196.238281 272.121094 C 198.710938 273.941406 201.320312 275.539062 204.039062 276.964844 C 204.871094 277.398438 205.609375 276.136719 204.773438 275.699219 Z M 229.917969 261.351562 C 227.191406 259.839844 224.347656 258.546875 221.5625 257.144531 C 220.726562 256.722656 219.984375 257.984375 220.828125 258.40625 C 223.609375 259.808594 226.453125 261.101562 229.179688 262.613281 C 230 263.074219 230.738281 261.8125 229.917969 261.351562 Z M 117.902344 217.84375 C 116.261719 216.648438 110.460938 215.945312 110.460938 215.945312 C 110.460938 215.945312 109.222656 217.949219 108.886719 219.472656 C 108.886719 219.472656 114.25 220.070312 116.894531 219.460938 C 116.796875 225.6875 116.179688 261.269531 114.117188 284.222656 C 114.078125 284.625 114.375 284.980469 114.777344 285.015625 C 114.800781 285.019531 114.820312 285.019531 114.84375 285.019531 C 115.21875 285.019531 115.535156 284.734375 115.570312 284.355469 C 117.832031 259.199219 118.363281 218.933594 118.367188 218.53125 C 118.371094 218.21875 118.175781 217.953125 117.902344 217.84375 Z M 299.535156 295.039062 C 298.117188 294.519531 273.003906 285.335938 258.097656 280.234375 L 259.113281 259.414062 C 259.132812 259.011719 258.820312 258.667969 258.417969 258.648438 C 258.046875 258.617188 257.671875 258.941406 257.652344 259.34375 L 256.660156 279.746094 C 252.195312 278.230469 248.847656 277.160156 247.675781 276.929688 C 247.378906 276.875 247.078125 277.003906 246.917969 277.257812 C 242.355469 284.523438 232.054688 304.300781 230.402344 308.011719 C 230.28125 308.285156 230.339844 308.609375 230.554688 308.824219 C 235.515625 313.789062 251.640625 323.398438 252.324219 323.804688 C 252.441406 323.875 252.570312 323.90625 252.699219 323.90625 C 252.945312 323.90625 253.191406 323.78125 253.328125 323.550781 C 253.53125 323.203125 253.417969 322.753906 253.070312 322.550781 C 252.910156 322.453125 237.191406 313.085938 231.953125 308.144531 C 233.933594 303.925781 243.210938 286.03125 247.878906 278.476562 C 254.765625 280.222656 298.582031 296.246094 299.035156 296.410156 C 299.410156 296.550781 299.832031 296.355469 299.972656 295.976562 C 300.109375 295.597656 299.914062 295.179688 299.535156 295.039062 Z M 280.484375 284.003906 C 280.550781 284.003906 280.621094 283.992188 280.6875 283.972656 C 280.800781 283.941406 292.066406 280.699219 295.984375 280.699219 C 296.386719 280.699219 296.714844 280.371094 296.714844 279.96875 C 296.714844 279.5625 296.386719 279.238281 295.984375 279.238281 C 291.863281 279.238281 280.753906 282.433594 280.28125 282.570312 C 279.894531 282.683594 279.671875 283.085938 279.785156 283.472656 C 279.875 283.792969 280.167969 284.003906 280.484375 284.003906 Z M 137.421875 221.976562 C 136.65625 207.160156 128.941406 197.789062 128.613281 197.398438 C 128.355469 197.089844 127.894531 197.050781 127.585938 197.308594 C 127.273438 197.566406 127.234375 198.027344 127.492188 198.335938 C 127.570312 198.429688 135.222656 207.722656 135.960938 222.050781 C 136.269531 228.027344 136.496094 232.957031 136.65625 236.722656 C 133.738281 229.589844 127.976562 219.15625 127.675781 218.609375 C 127.480469 218.257812 127.035156 218.128906 126.683594 218.324219 C 126.332031 218.523438 126.203125 218.964844 126.398438 219.320312 C 126.488281 219.484375 135.507812 235.8125 136.738281 241.488281 C 136.789062 241.710938 136.832031 241.996094 136.878906 242.308594 C 136.945312 244.140625 136.976562 245.136719 136.976562 245.167969 C 136.984375 245.359375 137.066406 245.527344 137.1875 245.652344 C 137.914062 256.78125 137.742188 282.957031 137.738281 283.265625 C 137.734375 283.671875 138.0625 284 138.464844 284.003906 C 138.464844 284.003906 138.46875 284.003906 138.46875 284.003906 C 138.871094 284.003906 139.195312 283.679688 139.199219 283.277344 C 139.210938 281.867188 139.417969 250.25 138.335938 242.207031 C 138.199219 238.5625 137.917969 231.613281 137.421875 221.976562 Z M 206.839844 211.035156 C 206.886719 211.007812 206.898438 210.996094 206.875 211.007812 C 206.867188 211.015625 206.855469 211.019531 206.847656 211.027344 C 206.84375 211.03125 206.839844 211.03125 206.839844 211.035156 Z M 207.4375 210.78125 C 207.480469 210.785156 207.503906 210.785156 207.515625 210.78125 C 207.488281 210.78125 207.464844 210.785156 207.4375 210.78125 Z M 206.847656 212.898438 C 206.898438 212.945312 206.953125 212.953125 206.847656 212.898438 Z M 207.128906 213.0625 C 207.128906 213.066406 207.132812 213.066406 207.132812 213.066406 C 207.066406 213.027344 207.058594 213.03125 207.082031 213.042969 C 207.085938 213.046875 207.09375 213.050781 207.097656 213.050781 C 207.105469 213.054688 207.117188 213.0625 207.128906 213.0625 Z M 207.050781 210.90625 C 207.070312 210.894531 207.09375 210.882812 207.117188 210.871094 C 207.125 210.871094 207.128906 210.867188 207.132812 210.867188 C 207.203125 210.839844 207.273438 210.820312 207.347656 210.800781 C 207.375 210.796875 207.40625 210.789062 207.4375 210.785156 C 207.425781 210.78125 207.425781 210.785156 207.414062 210.78125 C 207.421875 210.785156 207.429688 210.78125 207.4375 210.78125 C 207.441406 210.78125 207.445312 210.78125 207.445312 210.78125 C 207.496094 210.773438 207.535156 210.777344 207.515625 210.78125 C 207.621094 210.78125 207.730469 210.773438 207.839844 210.78125 C 207.875 210.785156 207.910156 210.792969 207.941406 210.800781 C 208.007812 210.816406 208.070312 210.839844 208.132812 210.859375 C 208.164062 210.871094 208.191406 210.886719 208.21875 210.902344 C 208.289062 210.941406 208.355469 210.984375 208.421875 211.03125 C 208.730469 211.257812 209.25 211.09375 209.421875 210.769531 C 209.621094 210.390625 209.492188 210.011719 209.160156 209.769531 C 208.523438 209.308594 207.648438 209.207031 206.898438 209.410156 C 206.082031 209.628906 205.457031 210.203125 205.144531 210.984375 C 204.851562 211.714844 204.945312 212.582031 205.304688 213.273438 C 205.660156 213.953125 206.355469 214.445312 207.113281 214.5625 C 208.015625 214.707031 208.996094 214.453125 209.617188 213.746094 C 209.871094 213.457031 209.921875 212.988281 209.617188 212.710938 C 209.34375 212.457031 208.855469 212.40625 208.585938 212.710938 C 208.539062 212.761719 208.492188 212.8125 208.445312 212.855469 C 208.429688 212.871094 208.414062 212.882812 208.398438 212.898438 C 208.34375 212.933594 208.289062 212.96875 208.230469 213 C 208.210938 213.011719 208.1875 213.023438 208.164062 213.035156 C 208.054688 213.054688 207.945312 213.101562 207.832031 213.128906 C 207.839844 213.128906 207.828125 213.136719 207.804688 213.140625 C 207.800781 213.140625 207.800781 213.140625 207.796875 213.140625 C 207.773438 213.144531 207.742188 213.148438 207.71875 213.152344 C 207.742188 213.148438 207.746094 213.148438 207.761719 213.144531 C 207.691406 213.144531 207.621094 213.152344 207.546875 213.148438 C 207.480469 213.148438 207.414062 213.136719 207.347656 213.132812 C 207.582031 213.140625 207.375 213.136719 207.300781 213.117188 C 207.246094 213.101562 207.191406 213.082031 207.132812 213.066406 C 207.148438 213.074219 207.152344 213.078125 207.171875 213.085938 C 207.148438 213.074219 207.121094 213.0625 207.097656 213.050781 C 207.089844 213.050781 207.085938 213.046875 207.082031 213.046875 C 207.074219 213.042969 207.070312 213.039062 207.0625 213.035156 C 207.003906 213.003906 206.945312 212.96875 206.886719 212.933594 C 206.867188 212.917969 206.84375 212.894531 206.820312 212.886719 C 206.832031 212.890625 206.835938 212.894531 206.84375 212.898438 C 206.800781 212.855469 206.757812 212.8125 206.714844 212.765625 C 206.695312 212.742188 206.675781 212.710938 206.652344 212.691406 C 206.660156 212.699219 206.664062 212.703125 206.671875 212.710938 C 206.671875 212.710938 206.671875 212.710938 206.667969 212.707031 C 206.632812 212.652344 206.597656 212.59375 206.566406 212.535156 C 206.558594 212.515625 206.550781 212.496094 206.539062 212.480469 C 206.5 212.359375 206.46875 212.238281 206.441406 212.113281 C 206.441406 212.089844 206.4375 212.070312 206.4375 212.046875 C 206.433594 211.988281 206.433594 211.925781 206.433594 211.867188 C 206.4375 211.804688 206.449219 211.746094 206.449219 211.683594 C 206.449219 211.707031 206.449219 211.710938 206.449219 211.726562 C 206.449219 211.722656 206.449219 211.722656 206.449219 211.71875 C 206.457031 211.679688 206.464844 211.640625 206.476562 211.601562 C 206.492188 211.546875 206.523438 211.484375 206.53125 211.429688 C 206.539062 211.414062 206.546875 211.398438 206.558594 211.382812 C 206.585938 211.328125 206.617188 211.277344 206.652344 211.226562 C 206.652344 211.222656 206.652344 211.222656 206.65625 211.21875 C 206.675781 211.195312 206.695312 211.171875 206.714844 211.152344 C 206.753906 211.109375 206.796875 211.074219 206.839844 211.035156 C 206.824219 211.042969 206.828125 211.046875 206.808594 211.054688 C 206.820312 211.050781 206.832031 211.039062 206.847656 211.027344 C 206.851562 211.023438 206.855469 211.019531 206.859375 211.015625 C 206.871094 211.003906 206.867188 211.011719 206.875 211.007812 C 206.878906 211.003906 206.886719 211 206.890625 210.996094 C 206.941406 210.964844 206.996094 210.933594 207.050781 210.90625 Z M 206.449219 211.726562 C 206.4375 211.785156 206.445312 211.851562 206.449219 211.726562 Z M 206.671875 212.710938 C 206.710938 212.765625 206.753906 212.789062 206.671875 212.710938 Z M 207.804688 213.140625 C 207.8125 213.136719 207.824219 213.132812 207.835938 213.128906 C 207.828125 213.128906 207.804688 213.132812 207.761719 213.144531 C 207.765625 213.144531 207.769531 213.144531 207.769531 213.144531 C 207.78125 213.144531 207.792969 213.140625 207.804688 213.140625 Z M 214.082031 212.796875 C 214.09375 212.8125 214.105469 212.820312 214.117188 212.832031 C 214.113281 212.824219 214.09375 212.804688 214.066406 212.777344 C 214.070312 212.78125 214.074219 212.789062 214.078125 212.792969 C 214.078125 212.796875 214.082031 212.796875 214.082031 212.796875 Z M 215.378906 210.925781 C 215.421875 210.945312 215.445312 210.957031 215.441406 210.957031 C 215.425781 210.945312 215.410156 210.9375 215.394531 210.929688 C 215.390625 210.929688 215.382812 210.925781 215.378906 210.925781 Z M 214.570312 213.039062 C 214.59375 213.042969 214.617188 213.042969 214.640625 213.042969 C 214.628906 213.039062 214.601562 213.039062 214.550781 213.035156 C 214.558594 213.035156 214.5625 213.039062 214.566406 213.039062 C 214.566406 213.039062 214.570312 213.039062 214.570312 213.039062 Z M 215.746094 212.742188 C 215.675781 212.789062 215.601562 212.835938 215.523438 212.875 C 215.503906 212.882812 215.484375 212.894531 215.464844 212.902344 C 215.449219 212.910156 215.433594 212.914062 215.417969 212.921875 C 215.328125 212.949219 215.242188 212.976562 215.152344 213 C 215.101562 213.011719 215.050781 213.023438 215 213.03125 C 214.996094 213.03125 214.992188 213.03125 214.992188 213.03125 C 214.902344 213.039062 214.816406 213.046875 214.726562 213.046875 C 214.699219 213.046875 214.667969 213.042969 214.640625 213.042969 C 214.660156 213.046875 214.613281 213.046875 214.570312 213.039062 C 214.570312 213.039062 214.566406 213.039062 214.566406 213.039062 C 214.542969 213.035156 214.515625 213.03125 214.492188 213.03125 C 214.523438 213.03125 214.53125 213.035156 214.550781 213.035156 C 214.46875 213.019531 214.390625 212.996094 214.308594 212.96875 C 214.265625 212.945312 214.222656 212.917969 214.179688 212.894531 C 214.15625 212.875 214.136719 212.855469 214.117188 212.832031 C 214.128906 212.851562 214.101562 212.832031 214.078125 212.796875 C 214.078125 212.796875 214.078125 212.792969 214.078125 212.792969 C 214.0625 212.773438 214.046875 212.753906 214.027344 212.738281 C 214.046875 212.753906 214.054688 212.761719 214.066406 212.777344 C 214.042969 212.734375 214.015625 212.691406 213.992188 212.648438 C 214 212.667969 214.003906 212.679688 214.015625 212.714844 C 214.007812 212.6875 213.996094 212.664062 213.988281 212.636719 C 213.96875 212.597656 213.953125 212.542969 213.980469 212.613281 C 213.964844 212.566406 213.949219 212.519531 213.9375 212.46875 C 213.921875 212.402344 213.910156 212.332031 213.898438 212.261719 C 213.949219 212.527344 213.902344 212.242188 213.898438 212.167969 C 213.894531 212.09375 213.894531 212.015625 213.898438 211.9375 C 213.902344 211.902344 213.910156 211.859375 213.910156 211.820312 C 213.910156 211.839844 213.90625 211.847656 213.90625 211.859375 C 213.921875 211.800781 213.9375 211.742188 213.953125 211.683594 C 213.960938 211.660156 213.96875 211.636719 213.976562 211.613281 C 213.984375 211.605469 213.988281 211.59375 213.992188 211.582031 C 214.023438 211.527344 214.050781 211.476562 214.085938 211.425781 C 214.097656 211.402344 214.113281 211.382812 214.128906 211.363281 C 214.175781 211.3125 214.222656 211.257812 214.273438 211.210938 C 214.292969 211.191406 214.316406 211.171875 214.335938 211.152344 C 214.441406 211.089844 214.539062 211.03125 214.644531 210.976562 C 214.675781 210.960938 214.769531 210.921875 214.8125 210.910156 C 214.839844 210.902344 214.867188 210.898438 214.898438 210.894531 C 214.863281 210.898438 214.914062 210.882812 214.960938 210.878906 C 214.960938 210.878906 214.964844 210.878906 214.96875 210.878906 C 214.984375 210.875 215 210.871094 215.015625 210.867188 C 214.992188 210.871094 214.988281 210.875 214.972656 210.878906 C 215.011719 210.875 215.054688 210.871094 215.097656 210.871094 C 215.128906 210.875 215.164062 210.875 215.199219 210.875 C 215.214844 210.878906 215.214844 210.878906 215.226562 210.878906 C 215.285156 210.890625 215.347656 210.914062 215.371094 210.921875 C 215.375 210.921875 215.375 210.925781 215.378906 210.925781 C 215.363281 210.917969 215.351562 210.910156 215.328125 210.898438 C 215.347656 210.910156 215.371094 210.921875 215.394531 210.929688 C 215.417969 210.941406 215.441406 210.953125 215.441406 210.957031 C 215.445312 210.957031 215.449219 210.957031 215.449219 210.960938 C 215.785156 211.140625 216.261719 211.054688 216.449219 210.695312 C 216.628906 210.355469 216.546875 209.890625 216.1875 209.699219 C 215.441406 209.292969 214.558594 209.347656 213.824219 209.746094 C 213.054688 210.164062 212.558594 210.925781 212.453125 211.785156 C 212.363281 212.511719 212.5625 213.335938 213.085938 213.871094 C 213.523438 214.316406 214.164062 214.515625 214.777344 214.507812 C 215.359375 214.5 216 214.335938 216.484375 214.003906 C 216.796875 213.789062 216.96875 213.351562 216.746094 213.003906 C 216.542969 212.691406 216.082031 212.511719 215.746094 212.742188 Z M 214.339844 211.148438 C 214.386719 211.105469 214.480469 211.066406 214.339844 211.148438 Z M 214.898438 210.894531 C 214.910156 210.890625 214.933594 210.886719 214.972656 210.878906 C 214.972656 210.878906 214.96875 210.878906 214.96875 210.878906 C 214.945312 210.882812 214.921875 210.886719 214.898438 210.894531 Z M 213.910156 211.859375 C 213.90625 211.863281 213.90625 211.863281 213.90625 211.863281 C 213.894531 211.929688 213.90625 212 213.910156 211.859375 Z M 213.988281 212.636719 C 213.988281 212.640625 213.992188 212.644531 213.992188 212.648438 C 213.988281 212.636719 213.984375 212.621094 213.980469 212.613281 C 213.980469 212.617188 213.980469 212.621094 213.984375 212.625 C 213.984375 212.628906 213.988281 212.632812 213.988281 212.636719 Z M 198.980469 212.953125 C 198.984375 212.953125 198.984375 212.957031 198.984375 212.960938 C 198.980469 212.949219 198.976562 212.9375 198.972656 212.929688 C 198.976562 212.933594 198.976562 212.9375 198.976562 212.941406 C 198.980469 212.945312 198.980469 212.949219 198.980469 212.953125 Z M 199.5625 213.355469 C 199.585938 213.355469 199.609375 213.355469 199.632812 213.355469 C 199.625 213.355469 199.59375 213.351562 199.546875 213.347656 C 199.550781 213.351562 199.554688 213.351562 199.558594 213.351562 C 199.5625 213.351562 199.5625 213.355469 199.5625 213.355469 Z M 199.074219 213.113281 C 199.085938 213.125 199.097656 213.136719 199.109375 213.148438 C 199.105469 213.140625 199.089844 213.121094 199.0625 213.089844 C 199.0625 213.097656 199.066406 213.101562 199.070312 213.109375 C 199.074219 213.109375 199.074219 213.109375 199.074219 213.113281 Z M 199.890625 211.207031 C 199.902344 211.207031 199.929688 211.199219 199.964844 211.191406 C 199.9375 211.195312 199.914062 211.203125 199.890625 211.207031 Z M 198.949219 211.996094 C 198.957031 211.972656 198.964844 211.953125 198.972656 211.929688 C 198.976562 211.917969 198.980469 211.90625 198.988281 211.898438 C 199.015625 211.84375 199.046875 211.789062 199.078125 211.738281 C 199.09375 211.71875 199.105469 211.699219 199.121094 211.675781 C 199.167969 211.625 199.214844 211.574219 199.265625 211.523438 C 199.289062 211.503906 199.308594 211.484375 199.332031 211.464844 C 199.433594 211.40625 199.535156 211.347656 199.636719 211.289062 C 199.671875 211.277344 199.761719 211.238281 199.804688 211.226562 C 199.832031 211.21875 199.863281 211.210938 199.890625 211.207031 C 199.859375 211.210938 199.910156 211.195312 199.953125 211.191406 C 199.957031 211.191406 199.960938 211.191406 199.964844 211.191406 C 199.980469 211.1875 199.996094 211.183594 200.011719 211.183594 C 199.988281 211.1875 199.980469 211.1875 199.964844 211.191406 C 200.007812 211.1875 200.050781 211.1875 200.089844 211.1875 C 200.125 211.1875 200.160156 211.1875 200.191406 211.191406 C 200.210938 211.191406 200.210938 211.191406 200.21875 211.191406 C 200.277344 211.207031 200.34375 211.226562 200.367188 211.234375 C 200.367188 211.238281 200.371094 211.238281 200.371094 211.238281 C 200.355469 211.230469 200.347656 211.226562 200.320312 211.210938 C 200.34375 211.222656 200.363281 211.234375 200.386719 211.246094 C 200.414062 211.253906 200.433594 211.265625 200.4375 211.269531 C 200.441406 211.269531 200.441406 211.273438 200.445312 211.273438 C 200.78125 211.457031 201.257812 211.367188 201.445312 211.011719 C 201.625 210.667969 201.539062 210.207031 201.183594 210.011719 C 200.4375 209.605469 199.554688 209.660156 198.816406 210.0625 C 198.046875 210.476562 197.550781 211.238281 197.445312 212.097656 C 197.355469 212.828125 197.554688 213.652344 198.078125 214.183594 C 198.519531 214.632812 199.15625 214.832031 199.773438 214.820312 C 200.355469 214.8125 200.992188 214.652344 201.476562 214.316406 C 201.792969 214.101562 201.964844 213.667969 201.738281 213.316406 C 201.539062 213.003906 201.078125 212.824219 200.738281 213.054688 C 200.667969 213.105469 200.59375 213.148438 200.519531 213.1875 C 200.496094 213.199219 200.476562 213.207031 200.457031 213.214844 C 200.441406 213.222656 200.425781 213.230469 200.410156 213.234375 C 200.324219 213.265625 200.234375 213.292969 200.144531 213.3125 C 200.09375 213.324219 200.042969 213.335938 199.992188 213.34375 C 199.992188 213.34375 199.988281 213.347656 199.984375 213.347656 C 199.894531 213.355469 199.808594 213.359375 199.71875 213.359375 C 199.691406 213.359375 199.664062 213.359375 199.632812 213.355469 C 199.652344 213.359375 199.609375 213.363281 199.566406 213.355469 C 199.5625 213.355469 199.5625 213.355469 199.558594 213.351562 C 199.535156 213.351562 199.511719 213.347656 199.484375 213.347656 C 199.515625 213.347656 199.527344 213.347656 199.546875 213.347656 C 199.464844 213.332031 199.382812 213.308594 199.304688 213.285156 C 199.257812 213.257812 199.214844 213.234375 199.171875 213.207031 C 199.152344 213.1875 199.132812 213.167969 199.109375 213.148438 C 199.121094 213.167969 199.09375 213.148438 199.074219 213.109375 C 199.070312 213.109375 199.070312 213.109375 199.070312 213.109375 C 199.054688 213.089844 199.039062 213.066406 199.023438 213.050781 C 199.042969 213.070312 199.046875 213.078125 199.0625 213.089844 C 199.035156 213.046875 199.011719 213.007812 198.984375 212.960938 C 198.992188 212.980469 199 212.996094 199.011719 213.027344 C 199 213.003906 198.992188 212.976562 198.980469 212.953125 C 198.960938 212.910156 198.945312 212.859375 198.972656 212.929688 C 198.957031 212.882812 198.941406 212.832031 198.929688 212.785156 C 198.914062 212.714844 198.90625 212.644531 198.890625 212.578125 C 198.945312 212.839844 198.894531 212.558594 198.890625 212.484375 C 198.890625 212.40625 198.890625 212.328125 198.894531 212.253906 C 198.894531 212.214844 198.902344 212.175781 198.902344 212.136719 C 198.902344 212.15625 198.902344 212.160156 198.902344 212.175781 C 198.914062 212.113281 198.929688 212.054688 198.949219 211.996094 Z M 199.332031 211.464844 C 199.382812 211.421875 199.476562 211.378906 199.332031 211.464844 Z M 198.902344 212.175781 C 198.902344 212.175781 198.902344 212.175781 198.902344 212.179688 C 198.886719 212.242188 198.898438 212.316406 198.902344 212.175781 Z M 200.371094 211.238281 C 200.414062 211.261719 200.4375 211.273438 200.4375 211.269531 C 200.421875 211.261719 200.402344 211.253906 200.386719 211.246094 C 200.382812 211.242188 200.378906 211.242188 200.371094 211.238281 Z M 163.980469 211.84375 C 163.972656 211.902344 163.976562 211.96875 163.980469 211.84375 Z M 164.660156 213.179688 C 164.664062 213.179688 164.664062 213.179688 164.667969 213.183594 C 164.597656 213.144531 164.589844 213.148438 164.617188 213.160156 C 164.621094 213.164062 164.625 213.164062 164.628906 213.167969 C 164.636719 213.171875 164.648438 213.175781 164.660156 213.179688 Z M 164.371094 211.152344 C 164.421875 211.125 164.429688 211.113281 164.410156 211.125 C 164.398438 211.132812 164.390625 211.136719 164.378906 211.144531 C 164.375 211.148438 164.375 211.148438 164.371094 211.152344 Z M 164.96875 210.898438 C 165.011719 210.902344 165.039062 210.898438 165.046875 210.898438 C 165.023438 210.898438 164.996094 210.898438 164.972656 210.898438 C 164.972656 210.898438 164.96875 210.898438 164.96875 210.898438 Z M 166.117188 212.828125 C 166.074219 212.878906 166.027344 212.925781 165.976562 212.972656 C 165.960938 212.988281 165.945312 213 165.929688 213.011719 C 165.875 213.046875 165.820312 213.085938 165.765625 213.117188 C 165.742188 213.128906 165.71875 213.140625 165.695312 213.152344 C 165.585938 213.171875 165.476562 213.21875 165.367188 213.246094 C 165.375 213.246094 165.359375 213.25 165.335938 213.253906 C 165.335938 213.253906 165.332031 213.257812 165.332031 213.257812 C 165.304688 213.261719 165.277344 213.261719 165.25 213.269531 C 165.273438 213.265625 165.28125 213.261719 165.296875 213.257812 C 165.222656 213.261719 165.152344 213.265625 165.082031 213.265625 C 165.011719 213.261719 164.945312 213.253906 164.878906 213.25 C 165.113281 213.257812 164.910156 213.25 164.835938 213.230469 C 164.777344 213.21875 164.722656 213.199219 164.667969 213.183594 C 164.679688 213.1875 164.6875 213.191406 164.703125 213.203125 C 164.679688 213.1875 164.652344 213.179688 164.628906 213.167969 C 164.625 213.164062 164.621094 213.164062 164.617188 213.160156 C 164.609375 213.15625 164.601562 213.152344 164.59375 213.152344 C 164.535156 213.121094 164.476562 213.085938 164.421875 213.046875 C 164.402344 213.035156 164.375 213.011719 164.355469 213 C 164.367188 213.007812 164.371094 213.007812 164.378906 213.011719 C 164.332031 212.972656 164.289062 212.929688 164.25 212.882812 C 164.226562 212.859375 164.207031 212.828125 164.183594 212.804688 C 164.195312 212.816406 164.199219 212.820312 164.207031 212.828125 C 164.207031 212.828125 164.203125 212.824219 164.203125 212.824219 C 164.164062 212.769531 164.132812 212.710938 164.101562 212.652344 C 164.089844 212.632812 164.082031 212.613281 164.074219 212.59375 C 164.035156 212.472656 164 212.355469 163.976562 212.230469 C 163.972656 212.207031 163.972656 212.1875 163.96875 212.164062 C 163.96875 212.101562 163.964844 212.042969 163.96875 211.980469 C 163.96875 211.921875 163.980469 211.859375 163.980469 211.800781 C 163.980469 211.820312 163.980469 211.828125 163.980469 211.84375 C 163.980469 211.839844 163.980469 211.835938 163.980469 211.835938 C 163.988281 211.792969 164 211.753906 164.007812 211.714844 C 164.023438 211.664062 164.054688 211.601562 164.066406 211.546875 C 164.074219 211.53125 164.082031 211.515625 164.089844 211.496094 C 164.117188 211.445312 164.148438 211.390625 164.183594 211.34375 C 164.183594 211.339844 164.1875 211.335938 164.1875 211.335938 C 164.210938 211.3125 164.230469 211.289062 164.246094 211.269531 C 164.285156 211.226562 164.328125 211.191406 164.371094 211.152344 C 164.359375 211.160156 164.359375 211.164062 164.34375 211.171875 C 164.355469 211.164062 164.367188 211.152344 164.378906 211.144531 C 164.382812 211.140625 164.390625 211.136719 164.394531 211.128906 C 164.40625 211.121094 164.402344 211.128906 164.410156 211.125 C 164.414062 211.121094 164.417969 211.117188 164.425781 211.113281 C 164.476562 211.082031 164.527344 211.050781 164.582031 211.023438 C 164.601562 211.011719 164.628906 211 164.652344 210.988281 C 164.65625 210.984375 164.660156 210.984375 164.667969 210.980469 C 164.738281 210.957031 164.808594 210.9375 164.878906 210.917969 C 164.910156 210.910156 164.941406 210.90625 164.96875 210.898438 C 164.960938 210.898438 164.957031 210.898438 164.945312 210.898438 C 164.953125 210.898438 164.964844 210.898438 164.972656 210.898438 C 164.972656 210.898438 164.976562 210.898438 164.980469 210.898438 C 165.03125 210.886719 165.070312 210.894531 165.046875 210.898438 C 165.15625 210.894531 165.261719 210.890625 165.371094 210.894531 C 165.40625 210.902344 165.441406 210.910156 165.476562 210.917969 C 165.539062 210.933594 165.601562 210.957031 165.667969 210.976562 C 165.695312 210.988281 165.722656 211.003906 165.75 211.015625 C 165.824219 211.054688 165.890625 211.101562 165.957031 211.148438 C 166.265625 211.375 166.785156 211.210938 166.953125 210.886719 C 167.15625 210.507812 167.023438 210.128906 166.691406 209.886719 C 166.058594 209.421875 165.179688 209.320312 164.433594 209.523438 C 163.617188 209.746094 162.992188 210.320312 162.679688 211.097656 C 162.382812 211.832031 162.480469 212.699219 162.839844 213.386719 C 163.195312 214.070312 163.886719 214.5625 164.644531 214.679688 C 165.550781 214.820312 166.53125 214.566406 167.152344 213.859375 C 167.402344 213.574219 167.453125 213.105469 167.152344 212.828125 C 166.875 212.574219 166.386719 212.519531 166.117188 212.828125 Z M 165.335938 213.253906 C 165.347656 213.253906 165.355469 213.25 165.367188 213.246094 C 165.363281 213.246094 165.339844 213.25 165.296875 213.257812 C 165.300781 213.257812 165.300781 213.257812 165.304688 213.257812 C 165.316406 213.257812 165.324219 213.257812 165.335938 213.253906 Z M 164.378906 213.011719 C 164.433594 213.0625 164.488281 213.066406 164.378906 213.011719 Z M 164.207031 212.828125 C 164.246094 212.882812 164.289062 212.90625 164.207031 212.828125 Z M 172.101562 213.15625 C 172.125 213.15625 172.148438 213.15625 172.171875 213.160156 C 172.164062 213.15625 172.132812 213.15625 172.085938 213.152344 C 172.089844 213.152344 172.09375 213.15625 172.097656 213.15625 C 172.101562 213.15625 172.101562 213.15625 172.101562 213.15625 Z M 171.519531 212.753906 C 171.523438 212.757812 171.523438 212.761719 171.523438 212.761719 C 171.519531 212.753906 171.515625 212.738281 171.511719 212.730469 C 171.515625 212.734375 171.515625 212.738281 171.515625 212.742188 C 171.515625 212.746094 171.519531 212.75 171.519531 212.753906 Z M 171.613281 212.914062 C 171.625 212.925781 171.636719 212.9375 171.648438 212.949219 C 171.644531 212.941406 171.628906 212.921875 171.601562 212.894531 C 171.605469 212.898438 171.605469 212.90625 171.609375 212.910156 C 171.613281 212.910156 171.613281 212.914062 171.613281 212.914062 Z M 173.277344 212.859375 C 173.207031 212.90625 173.132812 212.949219 173.058594 212.988281 C 173.039062 213 173.015625 213.007812 172.996094 213.019531 C 172.980469 213.023438 172.964844 213.03125 172.949219 213.035156 C 172.863281 213.066406 172.773438 213.09375 172.683594 213.113281 C 172.632812 213.128906 172.582031 213.136719 172.53125 213.148438 C 172.53125 213.148438 172.527344 213.148438 172.523438 213.148438 C 172.433594 213.15625 172.347656 213.164062 172.257812 213.164062 C 172.230469 213.164062 172.199219 213.160156 172.171875 213.160156 C 172.191406 213.164062 172.148438 213.164062 172.105469 213.15625 C 172.101562 213.15625 172.101562 213.15625 172.097656 213.15625 C 172.074219 213.152344 172.050781 213.148438 172.023438 213.148438 C 172.054688 213.148438 172.066406 213.148438 172.085938 213.152344 C 172.003906 213.136719 171.921875 213.113281 171.84375 213.085938 C 171.796875 213.0625 171.753906 213.035156 171.710938 213.007812 C 171.691406 212.988281 171.671875 212.96875 171.648438 212.949219 C 171.660156 212.96875 171.632812 212.949219 171.613281 212.914062 C 171.609375 212.910156 171.609375 212.910156 171.609375 212.910156 C 171.59375 212.890625 171.578125 212.871094 171.5625 212.855469 C 171.582031 212.871094 171.585938 212.878906 171.601562 212.894531 C 171.574219 212.851562 171.550781 212.808594 171.523438 212.765625 C 171.523438 212.765625 171.523438 212.761719 171.523438 212.761719 C 171.53125 212.78125 171.539062 212.796875 171.550781 212.832031 C 171.539062 212.804688 171.53125 212.78125 171.519531 212.753906 C 171.5 212.710938 171.484375 212.660156 171.511719 212.730469 C 171.496094 212.683594 171.480469 212.632812 171.46875 212.585938 C 171.453125 212.515625 171.445312 212.449219 171.429688 212.378906 C 171.484375 212.640625 171.433594 212.359375 171.429688 212.285156 C 171.429688 212.207031 171.429688 212.132812 171.433594 212.054688 C 171.433594 212.015625 171.441406 211.976562 171.441406 211.9375 C 171.441406 211.957031 171.441406 211.960938 171.441406 211.976562 C 171.453125 211.917969 171.46875 211.855469 171.488281 211.796875 C 171.496094 211.777344 171.503906 211.753906 171.511719 211.730469 C 171.515625 211.722656 171.519531 211.710938 171.527344 211.699219 C 171.554688 211.644531 171.585938 211.59375 171.617188 211.539062 C 171.632812 211.519531 171.644531 211.5 171.660156 211.480469 C 171.707031 211.425781 171.753906 211.375 171.804688 211.328125 C 171.828125 211.304688 171.847656 211.285156 171.871094 211.269531 C 171.972656 211.207031 172.074219 211.148438 172.175781 211.089844 C 172.210938 211.078125 172.300781 211.039062 172.34375 211.027344 C 172.371094 211.019531 172.402344 211.015625 172.429688 211.007812 C 172.398438 211.015625 172.445312 210.996094 172.492188 210.996094 C 172.496094 210.992188 172.5 210.996094 172.503906 210.992188 C 172.519531 210.992188 172.535156 210.988281 172.550781 210.984375 C 172.527344 210.988281 172.519531 210.988281 172.503906 210.992188 C 172.546875 210.992188 172.585938 210.988281 172.628906 210.988281 C 172.664062 210.988281 172.699219 210.992188 172.730469 210.992188 C 172.75 210.996094 172.75 210.992188 172.757812 210.992188 C 172.816406 211.007812 172.882812 211.03125 172.90625 211.039062 C 172.90625 211.039062 172.910156 211.039062 172.914062 211.042969 C 172.894531 211.03125 172.886719 211.027344 172.859375 211.015625 C 172.882812 211.027344 172.902344 211.035156 172.925781 211.046875 C 172.953125 211.058594 172.972656 211.070312 172.976562 211.070312 C 172.976562 211.074219 172.980469 211.074219 172.984375 211.074219 C 173.320312 211.257812 173.796875 211.167969 173.984375 210.8125 C 174.164062 210.472656 174.078125 210.007812 173.722656 209.8125 C 172.976562 209.40625 172.09375 209.464844 171.355469 209.863281 C 170.585938 210.28125 170.089844 211.042969 169.984375 211.902344 C 169.894531 212.628906 170.09375 213.453125 170.617188 213.988281 C 171.058594 214.433594 171.695312 214.632812 172.3125 214.625 C 172.894531 214.617188 173.53125 214.453125 174.015625 214.121094 C 174.332031 213.902344 174.503906 213.46875 174.277344 213.121094 C 174.078125 212.808594 173.617188 212.625 173.277344 212.859375 Z M 171.871094 211.265625 C 171.921875 211.222656 172.015625 211.183594 171.871094 211.265625 Z M 172.914062 211.042969 C 172.953125 211.0625 172.976562 211.074219 172.976562 211.070312 C 172.960938 211.0625 172.945312 211.054688 172.925781 211.046875 C 172.921875 211.046875 172.917969 211.042969 172.914062 211.042969 Z M 172.429688 211.007812 C 172.441406 211.007812 172.46875 211 172.503906 210.992188 C 172.476562 211 172.453125 211.003906 172.429688 211.007812 Z M 171.441406 211.976562 C 171.441406 211.976562 171.441406 211.980469 171.441406 211.980469 C 171.425781 212.042969 171.4375 212.117188 171.441406 211.976562 Z M 157.097656 213.46875 C 157.121094 213.472656 157.144531 213.472656 157.164062 213.472656 C 157.15625 213.472656 157.125 213.46875 157.078125 213.464844 C 157.082031 213.464844 157.089844 213.46875 157.09375 213.46875 C 157.09375 213.46875 157.09375 213.46875 157.097656 213.46875 Z M 158.273438 213.171875 C 158.203125 213.222656 158.128906 213.265625 158.050781 213.304688 C 158.03125 213.3125 158.011719 213.324219 157.988281 213.332031 C 157.972656 213.339844 157.957031 213.34375 157.941406 213.351562 C 157.855469 213.382812 157.765625 213.40625 157.679688 213.429688 C 157.628906 213.441406 157.578125 213.453125 157.527344 213.460938 C 157.523438 213.460938 157.519531 213.460938 157.515625 213.460938 C 157.429688 213.46875 157.339844 213.476562 157.253906 213.476562 C 157.222656 213.476562 157.195312 213.472656 157.164062 213.472656 C 157.1875 213.476562 157.140625 213.480469 157.097656 213.472656 C 157.097656 213.46875 157.09375 213.46875 157.09375 213.46875 C 157.066406 213.46875 157.042969 213.464844 157.019531 213.460938 C 157.046875 213.464844 157.058594 213.464844 157.078125 213.464844 C 156.996094 213.449219 156.914062 213.425781 156.835938 213.398438 C 156.792969 213.375 156.75 213.351562 156.703125 213.324219 C 156.683594 213.304688 156.664062 213.285156 156.644531 213.265625 C 156.65625 213.28125 156.628906 213.265625 156.605469 213.226562 C 156.605469 213.226562 156.605469 213.226562 156.605469 213.222656 C 156.585938 213.207031 156.574219 213.183594 156.554688 213.167969 C 156.574219 213.1875 156.582031 213.195312 156.59375 213.207031 C 156.566406 213.164062 156.542969 213.121094 156.519531 213.078125 C 156.523438 213.097656 156.53125 213.109375 156.542969 213.144531 C 156.535156 213.117188 156.523438 213.09375 156.515625 213.070312 C 156.492188 213.027344 156.480469 212.976562 156.507812 213.046875 C 156.492188 212.996094 156.476562 212.949219 156.464844 212.898438 C 156.445312 212.832031 156.4375 212.761719 156.421875 212.691406 C 156.476562 212.957031 156.425781 212.675781 156.425781 212.597656 C 156.421875 212.523438 156.421875 212.445312 156.425781 212.371094 C 156.425781 212.332031 156.433594 212.292969 156.433594 212.253906 C 156.433594 212.273438 156.433594 212.277344 156.433594 212.289062 C 156.445312 212.230469 156.460938 212.171875 156.480469 212.113281 C 156.488281 212.089844 156.496094 212.066406 156.503906 212.046875 C 156.511719 212.035156 156.515625 212.023438 156.519531 212.011719 C 156.546875 211.960938 156.578125 211.90625 156.613281 211.855469 C 156.625 211.832031 156.640625 211.8125 156.652344 211.792969 C 156.703125 211.742188 156.746094 211.6875 156.796875 211.640625 C 156.820312 211.621094 156.839844 211.601562 156.863281 211.582031 C 156.964844 211.523438 157.066406 211.460938 157.171875 211.40625 C 157.203125 211.394531 157.296875 211.351562 157.339844 211.339844 C 157.367188 211.332031 157.394531 211.328125 157.421875 211.324219 C 157.390625 211.328125 157.441406 211.3125 157.484375 211.308594 C 157.488281 211.308594 157.492188 211.308594 157.496094 211.308594 C 157.511719 211.304688 157.527344 211.300781 157.542969 211.296875 C 157.519531 211.304688 157.515625 211.304688 157.5 211.308594 C 157.539062 211.304688 157.582031 211.304688 157.625 211.304688 C 157.65625 211.304688 157.691406 211.304688 157.726562 211.308594 C 157.742188 211.308594 157.742188 211.308594 157.753906 211.308594 C 157.8125 211.324219 157.875 211.34375 157.898438 211.351562 C 157.902344 211.351562 157.902344 211.355469 157.90625 211.355469 C 157.890625 211.347656 157.878906 211.34375 157.851562 211.328125 C 157.875 211.339844 157.898438 211.351562 157.921875 211.363281 C 157.945312 211.371094 157.96875 211.382812 157.96875 211.386719 C 157.972656 211.386719 157.976562 211.386719 157.976562 211.390625 C 158.3125 211.574219 158.789062 211.484375 158.976562 211.128906 C 159.15625 210.785156 159.074219 210.324219 158.714844 210.128906 C 157.96875 209.722656 157.085938 209.777344 156.347656 210.175781 C 155.582031 210.59375 155.085938 211.355469 154.980469 212.214844 C 154.890625 212.945312 155.085938 213.769531 155.609375 214.300781 C 156.050781 214.75 156.6875 214.945312 157.304688 214.9375 C 157.886719 214.929688 158.527344 214.769531 159.007812 214.433594 C 159.324219 214.21875 159.496094 213.785156 159.273438 213.433594 C 159.070312 213.121094 158.609375 212.941406 158.273438 213.171875 Z M 156.867188 211.582031 C 156.867188 211.578125 156.867188 211.578125 156.867188 211.578125 C 156.914062 211.539062 157.007812 211.496094 156.867188 211.582031 Z M 156.515625 213.066406 C 156.515625 213.070312 156.515625 213.074219 156.519531 213.078125 C 156.515625 213.066406 156.507812 213.050781 156.507812 213.046875 C 156.507812 213.050781 156.507812 213.054688 156.511719 213.058594 C 156.511719 213.0625 156.511719 213.0625 156.515625 213.066406 Z M 156.433594 212.289062 C 156.433594 212.292969 156.433594 212.292969 156.433594 212.296875 C 156.421875 212.359375 156.433594 212.429688 156.433594 212.289062 Z M 157.90625 211.355469 C 157.949219 211.375 157.972656 211.386719 157.96875 211.386719 C 157.953125 211.375 157.9375 211.367188 157.921875 211.359375 C 157.914062 211.359375 157.910156 211.355469 157.90625 211.355469 Z M 157.425781 211.324219 C 157.433594 211.320312 157.460938 211.316406 157.5 211.308594 C 157.496094 211.308594 157.496094 211.308594 157.496094 211.308594 C 157.472656 211.3125 157.449219 211.320312 157.425781 211.324219 Z M 156.609375 213.230469 C 156.621094 213.242188 156.632812 213.253906 156.644531 213.265625 C 156.640625 213.253906 156.621094 213.234375 156.59375 213.207031 C 156.597656 213.210938 156.601562 213.21875 156.605469 213.222656 C 156.605469 213.226562 156.605469 213.226562 156.609375 213.230469 Z M 216.257812 144.917969 C 216.617188 144.734375 216.757812 144.292969 216.574219 143.933594 C 216.390625 143.578125 215.949219 143.433594 215.589844 143.617188 C 197.863281 152.734375 181.765625 140.25 181.605469 140.121094 C 181.289062 139.871094 180.828125 139.925781 180.578125 140.242188 C 180.328125 140.554688 180.378906 141.015625 180.695312 141.265625 C 180.820312 141.363281 189.882812 148.410156 202.027344 148.410156 C 206.457031 148.410156 211.296875 147.472656 216.257812 144.917969 Z M 96.476562 199.496094 C 96.074219 199.4375 95.703125 199.707031 95.640625 200.105469 C 95.578125 200.503906 95.847656 200.875 96.246094 200.941406 C 96.277344 200.945312 99.511719 201.5 100.753906 204.066406 C 100.878906 204.324219 101.140625 204.476562 101.410156 204.476562 C 101.515625 204.476562 101.625 204.453125 101.726562 204.402344 C 102.089844 204.226562 102.242188 203.789062 102.066406 203.425781 C 100.488281 200.167969 96.636719 199.523438 96.476562 199.496094 Z M 146.898438 124.429688 L 145.339844 123.445312 C 145.007812 123.234375 144.570312 123.324219 144.347656 123.644531 L 133.867188 138.800781 C 133.636719 139.132812 133.722656 139.589844 134.054688 139.820312 C 134.179688 139.90625 134.324219 139.949219 134.46875 139.949219 C 134.699219 139.949219 134.925781 139.835938 135.070312 139.632812 L 145.148438 125.054688 L 146.367188 125.824219 C 146.550781 125.9375 146.769531 125.96875 146.972656 125.902344 C 147 125.894531 149.84375 125.070312 152.191406 129.101562 C 152.394531 129.449219 152.84375 129.566406 153.191406 129.363281 C 153.539062 129.160156 153.65625 128.710938 153.453125 128.363281 C 151.007812 124.167969 147.929688 124.257812 146.898438 124.429688 Z M 181.8125 61.375 C 175.871094 68.910156 170.835938 77.140625 166.882812 85.890625 C 165.757812 88.382812 164.714844 90.914062 163.761719 93.476562 C 163.433594 94.359375 164.84375 94.742188 165.171875 93.867188 C 168.453125 85.058594 172.800781 76.660156 178.089844 68.894531 C 179.601562 66.675781 181.1875 64.511719 182.847656 62.40625 C 183.421875 61.675781 182.394531 60.636719 181.8125 61.375 Z M 162.699219 91.613281 C 161.789062 86.746094 162.058594 81.71875 163.445312 76.96875 C 163.710938 76.066406 162.300781 75.679688 162.035156 76.582031 C 160.574219 81.589844 160.332031 86.875 161.289062 92.003906 C 161.460938 92.925781 162.871094 92.535156 162.699219 91.613281 Z M 244.097656 103.210938 C 245.628906 100.84375 247.085938 98.421875 248.074219 95.773438 C 249.058594 93.140625 249.515625 90.351562 249.894531 87.578125 C 249.949219 87.183594 249.800781 86.796875 249.386719 86.679688 C 249.046875 86.578125 248.539062 86.796875 248.488281 87.1875 C 248.113281 89.914062 247.667969 92.652344 246.71875 95.242188 C 245.773438 97.820312 244.320312 100.179688 242.835938 102.472656 C 242.324219 103.265625 243.585938 103.996094 244.097656 103.210938 Z M 215.714844 51.917969 C 216.0625 52.085938 216.394531 52.28125 216.714844 52.5 C 216.796875 52.554688 216.878906 52.613281 216.957031 52.671875 C 216.96875 52.679688 217.019531 52.71875 217.035156 52.730469 C 217.046875 52.742188 217.058594 52.753906 217.066406 52.757812 C 217.21875 52.878906 217.367188 53.011719 217.511719 53.148438 C 217.785156 53.40625 218.039062 53.6875 218.277344 53.980469 C 218.285156 53.988281 218.28125 53.984375 218.285156 53.992188 C 218.289062 53.996094 218.285156 53.992188 218.292969 54.003906 C 218.320312 54.039062 218.347656 54.074219 218.375 54.113281 C 218.433594 54.191406 218.488281 54.273438 218.542969 54.355469 C 218.652344 54.519531 218.753906 54.691406 218.851562 54.863281 C 219.039062 55.195312 219.523438 55.335938 219.851562 55.125 C 220.1875 54.90625 220.316406 54.480469 220.113281 54.125 C 219.277344 52.640625 217.984375 51.402344 216.449219 50.65625 C 216.109375 50.488281 215.644531 50.550781 215.453125 50.917969 C 215.277344 51.246094 215.347656 51.738281 215.714844 51.917969 Z M 224.863281 58.082031 C 225.511719 57.660156 226.011719 57.445312 226.769531 57.273438 C 226.929688 57.238281 227.085938 57.210938 227.246094 57.1875 C 227.277344 57.183594 227.429688 57.167969 227.445312 57.167969 C 227.542969 57.15625 227.640625 57.152344 227.738281 57.148438 C 228.105469 57.132812 228.472656 57.152344 228.835938 57.199219 C 229.21875 57.25 229.585938 56.828125 229.566406 56.46875 C 229.546875 56.03125 229.246094 55.792969 228.835938 55.738281 C 227.210938 55.523438 225.5 55.929688 224.125 56.820312 C 223.804688 57.027344 223.640625 57.476562 223.863281 57.820312 C 224.066406 58.140625 224.519531 58.304688 224.863281 58.082031 Z M 217.664062 58.960938 C 217.546875 58.894531 217.425781 58.859375 217.292969 58.859375 C 216.789062 58.796875 216.285156 58.730469 215.78125 58.667969 C 215.609375 58.644531 215.382812 58.765625 215.265625 58.878906 C 215.140625 59.007812 215.042969 59.214844 215.050781 59.398438 C 215.058594 59.585938 215.121094 59.78125 215.265625 59.914062 C 215.316406 59.953125 215.363281 59.988281 215.414062 60.027344 C 215.527344 60.09375 215.648438 60.128906 215.78125 60.128906 C 216.285156 60.191406 216.789062 60.257812 217.292969 60.320312 C 217.464844 60.34375 217.695312 60.222656 217.808594 60.109375 C 217.9375 59.980469 218.03125 59.773438 218.023438 59.589844 C 218.015625 59.402344 217.953125 59.207031 217.808594 59.074219 C 217.761719 59.035156 217.710938 59 217.664062 58.960938 Z M 201.503906 118.207031 C 203.128906 111.414062 204.519531 104.578125 205.640625 97.683594 C 205.789062 96.761719 204.382812 96.367188 204.230469 97.292969 C 203.109375 104.191406 201.722656 111.027344 200.09375 117.820312 C 199.875 118.734375 201.28125 119.125 201.503906 118.207031 Z M 224.261719 97.476562 C 224.410156 97.84375 224.75 98.101562 225.160156 97.988281 C 225.511719 97.890625 225.820312 97.457031 225.671875 97.089844 C 224.542969 94.253906 222.0625 91.976562 218.910156 91.835938 C 218.515625 91.820312 218.179688 92.183594 218.179688 92.566406 C 218.179688 92.976562 218.511719 93.28125 218.910156 93.300781 C 220.015625 93.347656 221.144531 93.78125 222.0625 94.5 C 223.027344 95.257812 223.800781 96.3125 224.261719 97.476562 Z M 189.089844 109.328125 C 190.484375 109.597656 191.949219 108.078125 192.363281 105.933594 C 192.777344 103.789062 191.980469 101.832031 190.585938 101.5625 C 189.191406 101.292969 187.726562 102.8125 187.3125 104.957031 C 186.898438 107.101562 187.695312 109.058594 189.089844 109.328125 Z M 215.84375 106.4375 C 214.449219 106.167969 212.980469 107.6875 212.570312 109.832031 C 212.15625 111.976562 212.949219 113.933594 214.34375 114.203125 C 215.742188 114.472656 217.207031 112.953125 217.621094 110.808594 C 218.035156 108.664062 217.238281 106.707031 215.84375 106.4375 Z M 162.511719 109.226562 C 162.480469 109.628906 162.777344 109.980469 163.179688 110.015625 C 163.585938 110.050781 163.933594 109.75 163.96875 109.347656 C 164.035156 108.550781 164.292969 108.277344 164.328125 108.253906 C 164.40625 108.273438 164.777344 108.578125 165.003906 109.632812 C 165.074219 109.96875 165.375 110.210938 165.714844 110.210938 C 165.726562 110.210938 165.738281 110.210938 165.746094 110.207031 C 166.101562 110.195312 166.394531 109.925781 166.441406 109.574219 C 167.042969 104.953125 163.960938 100.652344 163.832031 100.46875 C 163.59375 100.144531 163.136719 100.074219 162.8125 100.308594 C 162.484375 100.546875 162.414062 101.003906 162.648438 101.328125 C 162.671875 101.359375 164.46875 103.875 164.941406 106.929688 C 164.644531 106.796875 164.382812 106.789062 164.246094 106.796875 C 163.503906 106.84375 162.65625 107.507812 162.511719 109.226562 Z M 235.136719 119.191406 C 235.492188 119.363281 235.914062 119.222656 236.097656 118.878906 C 236.789062 117.59375 237.402344 117.199219 237.648438 117.117188 C 237.65625 117.347656 237.539062 117.941406 236.800781 118.828125 C 236.539062 119.136719 236.582031 119.597656 236.890625 119.855469 C 237.027344 119.972656 237.195312 120.027344 237.359375 120.027344 C 237.570312 120.027344 237.777344 119.9375 237.921875 119.765625 C 238.953125 118.523438 239.34375 117.28125 238.964844 116.433594 C 238.789062 116.035156 238.449219 115.761719 238.039062 115.671875 C 239.773438 113.613281 241.582031 112.941406 241.605469 112.929688 C 241.984375 112.796875 242.183594 112.382812 242.050781 112 C 241.917969 111.621094 241.5 111.417969 241.121094 111.554688 C 240.953125 111.613281 236.980469 113.054688 234.78125 118.25 C 234.628906 118.609375 234.785156 119.023438 235.136719 119.191406 Z M 235.136719 119.191406 " fill-opacity="1" fill-rule="nonzero"/></svg>